<?xml version="1.0" encoding="utf-8" standalone="no"?>
<!DOCTYPE svg PUBLIC "-//W3C//DTD SVG 1.1//EN"
  "http://www.w3.org/Graphics/SVG/1.1/DTD/svg11.dtd">
<!-- Created with matplotlib (https://matplotlib.org/) -->
<svg height="432pt" version="1.1" viewBox="0 0 576 432" width="576pt" xmlns="http://www.w3.org/2000/svg" xmlns:xlink="http://www.w3.org/1999/xlink">
 <defs>
  <style type="text/css">
*{stroke-linecap:butt;stroke-linejoin:round;}
  </style>
 </defs>
 <g id="figure_1">
  <g id="patch_1">
   <path d="M 0 432 
L 576 432 
L 576 0 
L 0 0 
z
" style="fill:#ffffff;"/>
  </g>
  <g id="axes_1">
   <g id="patch_2">
    <path d="M 70.22 390.04 
L 555.615 390.04 
L 555.615 25.44 
L 70.22 25.44 
z
" style="fill:#ffffff;"/>
   </g>
   <g id="matplotlib.axis_1">
    <g id="xtick_1">
     <g id="line2d_1">
      <path clip-path="url(#p721d4e0bb2)" d="M 70.22 390.04 
L 70.22 25.44 
" style="fill:none;stroke:#000000;stroke-linecap:square;stroke-opacity:0.2;stroke-width:0.8;"/>
     </g>
     <g id="line2d_2">
      <defs>
       <path d="M 0 0 
L 0 3.5 
" id="m69582a9fdf" style="stroke:#000000;stroke-width:0.8;"/>
      </defs>
      <g>
       <use style="stroke:#000000;stroke-width:0.8;" x="70.22" xlink:href="#m69582a9fdf" y="390.04"/>
      </g>
     </g>
     <g id="text_1">
      <!-- 0 -->
      <defs>
       <path d="M 31.78125 66.40625 
Q 24.171875 66.40625 20.328125 58.90625 
Q 16.5 51.421875 16.5 36.375 
Q 16.5 21.390625 20.328125 13.890625 
Q 24.171875 6.390625 31.78125 6.390625 
Q 39.453125 6.390625 43.28125 13.890625 
Q 47.125 21.390625 47.125 36.375 
Q 47.125 51.421875 43.28125 58.90625 
Q 39.453125 66.40625 31.78125 66.40625 
z
M 31.78125 74.21875 
Q 44.046875 74.21875 50.515625 64.515625 
Q 56.984375 54.828125 56.984375 36.375 
Q 56.984375 17.96875 50.515625 8.265625 
Q 44.046875 -1.421875 31.78125 -1.421875 
Q 19.53125 -1.421875 13.0625 8.265625 
Q 6.59375 17.96875 6.59375 36.375 
Q 6.59375 54.828125 13.0625 64.515625 
Q 19.53125 74.21875 31.78125 74.21875 
z
" id="DejaVuSans-48"/>
      </defs>
      <g transform="translate(67.03875 404.638438)scale(0.1 -0.1)">
       <use xlink:href="#DejaVuSans-48"/>
      </g>
     </g>
    </g>
    <g id="xtick_2">
     <g id="line2d_3">
      <path clip-path="url(#p721d4e0bb2)" d="M 130.894375 390.04 
L 130.894375 25.44 
" style="fill:none;stroke:#000000;stroke-linecap:square;stroke-opacity:0.2;stroke-width:0.8;"/>
     </g>
     <g id="line2d_4">
      <g>
       <use style="stroke:#000000;stroke-width:0.8;" x="130.894375" xlink:href="#m69582a9fdf" y="390.04"/>
      </g>
     </g>
     <g id="text_2">
      <!-- 50 -->
      <defs>
       <path d="M 10.796875 72.90625 
L 49.515625 72.90625 
L 49.515625 64.59375 
L 19.828125 64.59375 
L 19.828125 46.734375 
Q 21.96875 47.46875 24.109375 47.828125 
Q 26.265625 48.1875 28.421875 48.1875 
Q 40.625 48.1875 47.75 41.5 
Q 54.890625 34.8125 54.890625 23.390625 
Q 54.890625 11.625 47.5625 5.09375 
Q 40.234375 -1.421875 26.90625 -1.421875 
Q 22.3125 -1.421875 17.546875 -0.640625 
Q 12.796875 0.140625 7.71875 1.703125 
L 7.71875 11.625 
Q 12.109375 9.234375 16.796875 8.0625 
Q 21.484375 6.890625 26.703125 6.890625 
Q 35.15625 6.890625 40.078125 11.328125 
Q 45.015625 15.765625 45.015625 23.390625 
Q 45.015625 31 40.078125 35.4375 
Q 35.15625 39.890625 26.703125 39.890625 
Q 22.75 39.890625 18.8125 39.015625 
Q 14.890625 38.140625 10.796875 36.28125 
z
" id="DejaVuSans-53"/>
      </defs>
      <g transform="translate(124.531875 404.638438)scale(0.1 -0.1)">
       <use xlink:href="#DejaVuSans-53"/>
       <use x="63.623047" xlink:href="#DejaVuSans-48"/>
      </g>
     </g>
    </g>
    <g id="xtick_3">
     <g id="line2d_5">
      <path clip-path="url(#p721d4e0bb2)" d="M 191.56875 390.04 
L 191.56875 25.44 
" style="fill:none;stroke:#000000;stroke-linecap:square;stroke-opacity:0.2;stroke-width:0.8;"/>
     </g>
     <g id="line2d_6">
      <g>
       <use style="stroke:#000000;stroke-width:0.8;" x="191.56875" xlink:href="#m69582a9fdf" y="390.04"/>
      </g>
     </g>
     <g id="text_3">
      <!-- 100 -->
      <defs>
       <path d="M 12.40625 8.296875 
L 28.515625 8.296875 
L 28.515625 63.921875 
L 10.984375 60.40625 
L 10.984375 69.390625 
L 28.421875 72.90625 
L 38.28125 72.90625 
L 38.28125 8.296875 
L 54.390625 8.296875 
L 54.390625 0 
L 12.40625 0 
z
" id="DejaVuSans-49"/>
      </defs>
      <g transform="translate(182.025 404.638438)scale(0.1 -0.1)">
       <use xlink:href="#DejaVuSans-49"/>
       <use x="63.623047" xlink:href="#DejaVuSans-48"/>
       <use x="127.246094" xlink:href="#DejaVuSans-48"/>
      </g>
     </g>
    </g>
    <g id="xtick_4">
     <g id="line2d_7">
      <path clip-path="url(#p721d4e0bb2)" d="M 252.243125 390.04 
L 252.243125 25.44 
" style="fill:none;stroke:#000000;stroke-linecap:square;stroke-opacity:0.2;stroke-width:0.8;"/>
     </g>
     <g id="line2d_8">
      <g>
       <use style="stroke:#000000;stroke-width:0.8;" x="252.243125" xlink:href="#m69582a9fdf" y="390.04"/>
      </g>
     </g>
     <g id="text_4">
      <!-- 150 -->
      <g transform="translate(242.699375 404.638438)scale(0.1 -0.1)">
       <use xlink:href="#DejaVuSans-49"/>
       <use x="63.623047" xlink:href="#DejaVuSans-53"/>
       <use x="127.246094" xlink:href="#DejaVuSans-48"/>
      </g>
     </g>
    </g>
    <g id="xtick_5">
     <g id="line2d_9">
      <path clip-path="url(#p721d4e0bb2)" d="M 312.9175 390.04 
L 312.9175 25.44 
" style="fill:none;stroke:#000000;stroke-linecap:square;stroke-opacity:0.2;stroke-width:0.8;"/>
     </g>
     <g id="line2d_10">
      <g>
       <use style="stroke:#000000;stroke-width:0.8;" x="312.9175" xlink:href="#m69582a9fdf" y="390.04"/>
      </g>
     </g>
     <g id="text_5">
      <!-- 200 -->
      <defs>
       <path d="M 19.1875 8.296875 
L 53.609375 8.296875 
L 53.609375 0 
L 7.328125 0 
L 7.328125 8.296875 
Q 12.9375 14.109375 22.625 23.890625 
Q 32.328125 33.6875 34.8125 36.53125 
Q 39.546875 41.84375 41.421875 45.53125 
Q 43.3125 49.21875 43.3125 52.78125 
Q 43.3125 58.59375 39.234375 62.25 
Q 35.15625 65.921875 28.609375 65.921875 
Q 23.96875 65.921875 18.8125 64.3125 
Q 13.671875 62.703125 7.8125 59.421875 
L 7.8125 69.390625 
Q 13.765625 71.78125 18.9375 73 
Q 24.125 74.21875 28.421875 74.21875 
Q 39.75 74.21875 46.484375 68.546875 
Q 53.21875 62.890625 53.21875 53.421875 
Q 53.21875 48.921875 51.53125 44.890625 
Q 49.859375 40.875 45.40625 35.40625 
Q 44.1875 33.984375 37.640625 27.21875 
Q 31.109375 20.453125 19.1875 8.296875 
z
" id="DejaVuSans-50"/>
      </defs>
      <g transform="translate(303.37375 404.638438)scale(0.1 -0.1)">
       <use xlink:href="#DejaVuSans-50"/>
       <use x="63.623047" xlink:href="#DejaVuSans-48"/>
       <use x="127.246094" xlink:href="#DejaVuSans-48"/>
      </g>
     </g>
    </g>
    <g id="xtick_6">
     <g id="line2d_11">
      <path clip-path="url(#p721d4e0bb2)" d="M 373.591875 390.04 
L 373.591875 25.44 
" style="fill:none;stroke:#000000;stroke-linecap:square;stroke-opacity:0.2;stroke-width:0.8;"/>
     </g>
     <g id="line2d_12">
      <g>
       <use style="stroke:#000000;stroke-width:0.8;" x="373.591875" xlink:href="#m69582a9fdf" y="390.04"/>
      </g>
     </g>
     <g id="text_6">
      <!-- 250 -->
      <g transform="translate(364.048125 404.638438)scale(0.1 -0.1)">
       <use xlink:href="#DejaVuSans-50"/>
       <use x="63.623047" xlink:href="#DejaVuSans-53"/>
       <use x="127.246094" xlink:href="#DejaVuSans-48"/>
      </g>
     </g>
    </g>
    <g id="xtick_7">
     <g id="line2d_13">
      <path clip-path="url(#p721d4e0bb2)" d="M 434.26625 390.04 
L 434.26625 25.44 
" style="fill:none;stroke:#000000;stroke-linecap:square;stroke-opacity:0.2;stroke-width:0.8;"/>
     </g>
     <g id="line2d_14">
      <g>
       <use style="stroke:#000000;stroke-width:0.8;" x="434.26625" xlink:href="#m69582a9fdf" y="390.04"/>
      </g>
     </g>
     <g id="text_7">
      <!-- 300 -->
      <defs>
       <path d="M 40.578125 39.3125 
Q 47.65625 37.796875 51.625 33 
Q 55.609375 28.21875 55.609375 21.1875 
Q 55.609375 10.40625 48.1875 4.484375 
Q 40.765625 -1.421875 27.09375 -1.421875 
Q 22.515625 -1.421875 17.65625 -0.515625 
Q 12.796875 0.390625 7.625 2.203125 
L 7.625 11.71875 
Q 11.71875 9.328125 16.59375 8.109375 
Q 21.484375 6.890625 26.8125 6.890625 
Q 36.078125 6.890625 40.9375 10.546875 
Q 45.796875 14.203125 45.796875 21.1875 
Q 45.796875 27.640625 41.28125 31.265625 
Q 36.765625 34.90625 28.71875 34.90625 
L 20.21875 34.90625 
L 20.21875 43.015625 
L 29.109375 43.015625 
Q 36.375 43.015625 40.234375 45.921875 
Q 44.09375 48.828125 44.09375 54.296875 
Q 44.09375 59.90625 40.109375 62.90625 
Q 36.140625 65.921875 28.71875 65.921875 
Q 24.65625 65.921875 20.015625 65.03125 
Q 15.375 64.15625 9.8125 62.3125 
L 9.8125 71.09375 
Q 15.4375 72.65625 20.34375 73.4375 
Q 25.25 74.21875 29.59375 74.21875 
Q 40.828125 74.21875 47.359375 69.109375 
Q 53.90625 64.015625 53.90625 55.328125 
Q 53.90625 49.265625 50.4375 45.09375 
Q 46.96875 40.921875 40.578125 39.3125 
z
" id="DejaVuSans-51"/>
      </defs>
      <g transform="translate(424.7225 404.638438)scale(0.1 -0.1)">
       <use xlink:href="#DejaVuSans-51"/>
       <use x="63.623047" xlink:href="#DejaVuSans-48"/>
       <use x="127.246094" xlink:href="#DejaVuSans-48"/>
      </g>
     </g>
    </g>
    <g id="xtick_8">
     <g id="line2d_15">
      <path clip-path="url(#p721d4e0bb2)" d="M 494.940625 390.04 
L 494.940625 25.44 
" style="fill:none;stroke:#000000;stroke-linecap:square;stroke-opacity:0.2;stroke-width:0.8;"/>
     </g>
     <g id="line2d_16">
      <g>
       <use style="stroke:#000000;stroke-width:0.8;" x="494.940625" xlink:href="#m69582a9fdf" y="390.04"/>
      </g>
     </g>
     <g id="text_8">
      <!-- 350 -->
      <g transform="translate(485.396875 404.638438)scale(0.1 -0.1)">
       <use xlink:href="#DejaVuSans-51"/>
       <use x="63.623047" xlink:href="#DejaVuSans-53"/>
       <use x="127.246094" xlink:href="#DejaVuSans-48"/>
      </g>
     </g>
    </g>
    <g id="xtick_9">
     <g id="line2d_17">
      <path clip-path="url(#p721d4e0bb2)" d="M 555.615 390.04 
L 555.615 25.44 
" style="fill:none;stroke:#000000;stroke-linecap:square;stroke-opacity:0.2;stroke-width:0.8;"/>
     </g>
     <g id="line2d_18">
      <g>
       <use style="stroke:#000000;stroke-width:0.8;" x="555.615" xlink:href="#m69582a9fdf" y="390.04"/>
      </g>
     </g>
     <g id="text_9">
      <!-- 400 -->
      <defs>
       <path d="M 37.796875 64.3125 
L 12.890625 25.390625 
L 37.796875 25.390625 
z
M 35.203125 72.90625 
L 47.609375 72.90625 
L 47.609375 25.390625 
L 58.015625 25.390625 
L 58.015625 17.1875 
L 47.609375 17.1875 
L 47.609375 0 
L 37.796875 0 
L 37.796875 17.1875 
L 4.890625 17.1875 
L 4.890625 26.703125 
z
" id="DejaVuSans-52"/>
      </defs>
      <g transform="translate(546.07125 404.638438)scale(0.1 -0.1)">
       <use xlink:href="#DejaVuSans-52"/>
       <use x="63.623047" xlink:href="#DejaVuSans-48"/>
       <use x="127.246094" xlink:href="#DejaVuSans-48"/>
      </g>
     </g>
    </g>
    <g id="text_10">
     <!-- 27-mer frequency -->
     <defs>
      <path d="M 8.203125 72.90625 
L 55.078125 72.90625 
L 55.078125 68.703125 
L 28.609375 0 
L 18.3125 0 
L 43.21875 64.59375 
L 8.203125 64.59375 
z
" id="DejaVuSans-55"/>
      <path d="M 4.890625 31.390625 
L 31.203125 31.390625 
L 31.203125 23.390625 
L 4.890625 23.390625 
z
" id="DejaVuSans-45"/>
      <path d="M 52 44.1875 
Q 55.375 50.25 60.0625 53.125 
Q 64.75 56 71.09375 56 
Q 79.640625 56 84.28125 50.015625 
Q 88.921875 44.046875 88.921875 33.015625 
L 88.921875 0 
L 79.890625 0 
L 79.890625 32.71875 
Q 79.890625 40.578125 77.09375 44.375 
Q 74.3125 48.1875 68.609375 48.1875 
Q 61.625 48.1875 57.5625 43.546875 
Q 53.515625 38.921875 53.515625 30.90625 
L 53.515625 0 
L 44.484375 0 
L 44.484375 32.71875 
Q 44.484375 40.625 41.703125 44.40625 
Q 38.921875 48.1875 33.109375 48.1875 
Q 26.21875 48.1875 22.15625 43.53125 
Q 18.109375 38.875 18.109375 30.90625 
L 18.109375 0 
L 9.078125 0 
L 9.078125 54.6875 
L 18.109375 54.6875 
L 18.109375 46.1875 
Q 21.1875 51.21875 25.484375 53.609375 
Q 29.78125 56 35.6875 56 
Q 41.65625 56 45.828125 52.96875 
Q 50 49.953125 52 44.1875 
z
" id="DejaVuSans-109"/>
      <path d="M 56.203125 29.59375 
L 56.203125 25.203125 
L 14.890625 25.203125 
Q 15.484375 15.921875 20.484375 11.0625 
Q 25.484375 6.203125 34.421875 6.203125 
Q 39.59375 6.203125 44.453125 7.46875 
Q 49.3125 8.734375 54.109375 11.28125 
L 54.109375 2.78125 
Q 49.265625 0.734375 44.1875 -0.34375 
Q 39.109375 -1.421875 33.890625 -1.421875 
Q 20.796875 -1.421875 13.15625 6.1875 
Q 5.515625 13.8125 5.515625 26.8125 
Q 5.515625 40.234375 12.765625 48.109375 
Q 20.015625 56 32.328125 56 
Q 43.359375 56 49.78125 48.890625 
Q 56.203125 41.796875 56.203125 29.59375 
z
M 47.21875 32.234375 
Q 47.125 39.59375 43.09375 43.984375 
Q 39.0625 48.390625 32.421875 48.390625 
Q 24.90625 48.390625 20.390625 44.140625 
Q 15.875 39.890625 15.1875 32.171875 
z
" id="DejaVuSans-101"/>
      <path d="M 41.109375 46.296875 
Q 39.59375 47.171875 37.8125 47.578125 
Q 36.03125 48 33.890625 48 
Q 26.265625 48 22.1875 43.046875 
Q 18.109375 38.09375 18.109375 28.8125 
L 18.109375 0 
L 9.078125 0 
L 9.078125 54.6875 
L 18.109375 54.6875 
L 18.109375 46.1875 
Q 20.953125 51.171875 25.484375 53.578125 
Q 30.03125 56 36.53125 56 
Q 37.453125 56 38.578125 55.875 
Q 39.703125 55.765625 41.0625 55.515625 
z
" id="DejaVuSans-114"/>
      <path id="DejaVuSans-32"/>
      <path d="M 37.109375 75.984375 
L 37.109375 68.5 
L 28.515625 68.5 
Q 23.6875 68.5 21.796875 66.546875 
Q 19.921875 64.59375 19.921875 59.515625 
L 19.921875 54.6875 
L 34.71875 54.6875 
L 34.71875 47.703125 
L 19.921875 47.703125 
L 19.921875 0 
L 10.890625 0 
L 10.890625 47.703125 
L 2.296875 47.703125 
L 2.296875 54.6875 
L 10.890625 54.6875 
L 10.890625 58.5 
Q 10.890625 67.625 15.140625 71.796875 
Q 19.390625 75.984375 28.609375 75.984375 
z
" id="DejaVuSans-102"/>
      <path d="M 14.796875 27.296875 
Q 14.796875 17.390625 18.875 11.75 
Q 22.953125 6.109375 30.078125 6.109375 
Q 37.203125 6.109375 41.296875 11.75 
Q 45.40625 17.390625 45.40625 27.296875 
Q 45.40625 37.203125 41.296875 42.84375 
Q 37.203125 48.484375 30.078125 48.484375 
Q 22.953125 48.484375 18.875 42.84375 
Q 14.796875 37.203125 14.796875 27.296875 
z
M 45.40625 8.203125 
Q 42.578125 3.328125 38.25 0.953125 
Q 33.9375 -1.421875 27.875 -1.421875 
Q 17.96875 -1.421875 11.734375 6.484375 
Q 5.515625 14.40625 5.515625 27.296875 
Q 5.515625 40.1875 11.734375 48.09375 
Q 17.96875 56 27.875 56 
Q 33.9375 56 38.25 53.625 
Q 42.578125 51.265625 45.40625 46.390625 
L 45.40625 54.6875 
L 54.390625 54.6875 
L 54.390625 -20.796875 
L 45.40625 -20.796875 
z
" id="DejaVuSans-113"/>
      <path d="M 8.5 21.578125 
L 8.5 54.6875 
L 17.484375 54.6875 
L 17.484375 21.921875 
Q 17.484375 14.15625 20.5 10.265625 
Q 23.53125 6.390625 29.59375 6.390625 
Q 36.859375 6.390625 41.078125 11.03125 
Q 45.3125 15.671875 45.3125 23.6875 
L 45.3125 54.6875 
L 54.296875 54.6875 
L 54.296875 0 
L 45.3125 0 
L 45.3125 8.40625 
Q 42.046875 3.421875 37.71875 1 
Q 33.40625 -1.421875 27.6875 -1.421875 
Q 18.265625 -1.421875 13.375 4.4375 
Q 8.5 10.296875 8.5 21.578125 
z
M 31.109375 56 
z
" id="DejaVuSans-117"/>
      <path d="M 54.890625 33.015625 
L 54.890625 0 
L 45.90625 0 
L 45.90625 32.71875 
Q 45.90625 40.484375 42.875 44.328125 
Q 39.84375 48.1875 33.796875 48.1875 
Q 26.515625 48.1875 22.3125 43.546875 
Q 18.109375 38.921875 18.109375 30.90625 
L 18.109375 0 
L 9.078125 0 
L 9.078125 54.6875 
L 18.109375 54.6875 
L 18.109375 46.1875 
Q 21.34375 51.125 25.703125 53.5625 
Q 30.078125 56 35.796875 56 
Q 45.21875 56 50.046875 50.171875 
Q 54.890625 44.34375 54.890625 33.015625 
z
" id="DejaVuSans-110"/>
      <path d="M 48.78125 52.59375 
L 48.78125 44.1875 
Q 44.96875 46.296875 41.140625 47.34375 
Q 37.3125 48.390625 33.40625 48.390625 
Q 24.65625 48.390625 19.8125 42.84375 
Q 14.984375 37.3125 14.984375 27.296875 
Q 14.984375 17.28125 19.8125 11.734375 
Q 24.65625 6.203125 33.40625 6.203125 
Q 37.3125 6.203125 41.140625 7.25 
Q 44.96875 8.296875 48.78125 10.40625 
L 48.78125 2.09375 
Q 45.015625 0.34375 40.984375 -0.53125 
Q 36.96875 -1.421875 32.421875 -1.421875 
Q 20.0625 -1.421875 12.78125 6.34375 
Q 5.515625 14.109375 5.515625 27.296875 
Q 5.515625 40.671875 12.859375 48.328125 
Q 20.21875 56 33.015625 56 
Q 37.15625 56 41.109375 55.140625 
Q 45.0625 54.296875 48.78125 52.59375 
z
" id="DejaVuSans-99"/>
      <path d="M 32.171875 -5.078125 
Q 28.375 -14.84375 24.75 -17.8125 
Q 21.140625 -20.796875 15.09375 -20.796875 
L 7.90625 -20.796875 
L 7.90625 -13.28125 
L 13.1875 -13.28125 
Q 16.890625 -13.28125 18.9375 -11.515625 
Q 21 -9.765625 23.484375 -3.21875 
L 25.09375 0.875 
L 2.984375 54.6875 
L 12.5 54.6875 
L 29.59375 11.921875 
L 46.6875 54.6875 
L 56.203125 54.6875 
z
" id="DejaVuSans-121"/>
     </defs>
     <g transform="translate(268.083125 418.316562)scale(0.1 -0.1)">
      <use xlink:href="#DejaVuSans-50"/>
      <use x="63.623047" xlink:href="#DejaVuSans-55"/>
      <use x="127.246094" xlink:href="#DejaVuSans-45"/>
      <use x="163.330078" xlink:href="#DejaVuSans-109"/>
      <use x="260.742188" xlink:href="#DejaVuSans-101"/>
      <use x="322.265625" xlink:href="#DejaVuSans-114"/>
      <use x="363.378906" xlink:href="#DejaVuSans-32"/>
      <use x="395.166016" xlink:href="#DejaVuSans-102"/>
      <use x="430.371094" xlink:href="#DejaVuSans-114"/>
      <use x="469.234375" xlink:href="#DejaVuSans-101"/>
      <use x="530.757812" xlink:href="#DejaVuSans-113"/>
      <use x="594.234375" xlink:href="#DejaVuSans-117"/>
      <use x="657.613281" xlink:href="#DejaVuSans-101"/>
      <use x="719.136719" xlink:href="#DejaVuSans-110"/>
      <use x="782.515625" xlink:href="#DejaVuSans-99"/>
      <use x="837.496094" xlink:href="#DejaVuSans-121"/>
     </g>
    </g>
   </g>
   <g id="matplotlib.axis_2">
    <g id="ytick_1">
     <g id="line2d_19">
      <path clip-path="url(#p721d4e0bb2)" d="M 70.22 390.04 
L 555.615 390.04 
" style="fill:none;stroke:#000000;stroke-linecap:square;stroke-opacity:0.2;stroke-width:0.8;"/>
     </g>
     <g id="line2d_20">
      <defs>
       <path d="M 0 0 
L -3.5 0 
" id="m126b8db84f" style="stroke:#000000;stroke-width:0.8;"/>
      </defs>
      <g>
       <use style="stroke:#000000;stroke-width:0.8;" x="70.22" xlink:href="#m126b8db84f" y="390.04"/>
      </g>
     </g>
     <g id="text_11">
      <!-- 0 -->
      <g transform="translate(56.8575 393.839219)scale(0.1 -0.1)">
       <use xlink:href="#DejaVuSans-48"/>
      </g>
     </g>
    </g>
    <g id="ytick_2">
     <g id="line2d_21">
      <path clip-path="url(#p721d4e0bb2)" d="M 70.22 347.447866 
L 555.615 347.447866 
" style="fill:none;stroke:#000000;stroke-linecap:square;stroke-opacity:0.2;stroke-width:0.8;"/>
     </g>
     <g id="line2d_22">
      <g>
       <use style="stroke:#000000;stroke-width:0.8;" x="70.22" xlink:href="#m126b8db84f" y="347.447866"/>
      </g>
     </g>
     <g id="text_12">
      <!-- 50000 -->
      <g transform="translate(31.4075 351.247084)scale(0.1 -0.1)">
       <use xlink:href="#DejaVuSans-53"/>
       <use x="63.623047" xlink:href="#DejaVuSans-48"/>
       <use x="127.246094" xlink:href="#DejaVuSans-48"/>
       <use x="190.869141" xlink:href="#DejaVuSans-48"/>
       <use x="254.492188" xlink:href="#DejaVuSans-48"/>
      </g>
     </g>
    </g>
    <g id="ytick_3">
     <g id="line2d_23">
      <path clip-path="url(#p721d4e0bb2)" d="M 70.22 304.855731 
L 555.615 304.855731 
" style="fill:none;stroke:#000000;stroke-linecap:square;stroke-opacity:0.2;stroke-width:0.8;"/>
     </g>
     <g id="line2d_24">
      <g>
       <use style="stroke:#000000;stroke-width:0.8;" x="70.22" xlink:href="#m126b8db84f" y="304.855731"/>
      </g>
     </g>
     <g id="text_13">
      <!-- 100000 -->
      <g transform="translate(25.045 308.65495)scale(0.1 -0.1)">
       <use xlink:href="#DejaVuSans-49"/>
       <use x="63.623047" xlink:href="#DejaVuSans-48"/>
       <use x="127.246094" xlink:href="#DejaVuSans-48"/>
       <use x="190.869141" xlink:href="#DejaVuSans-48"/>
       <use x="254.492188" xlink:href="#DejaVuSans-48"/>
       <use x="318.115234" xlink:href="#DejaVuSans-48"/>
      </g>
     </g>
    </g>
    <g id="ytick_4">
     <g id="line2d_25">
      <path clip-path="url(#p721d4e0bb2)" d="M 70.22 262.263597 
L 555.615 262.263597 
" style="fill:none;stroke:#000000;stroke-linecap:square;stroke-opacity:0.2;stroke-width:0.8;"/>
     </g>
     <g id="line2d_26">
      <g>
       <use style="stroke:#000000;stroke-width:0.8;" x="70.22" xlink:href="#m126b8db84f" y="262.263597"/>
      </g>
     </g>
     <g id="text_14">
      <!-- 150000 -->
      <g transform="translate(25.045 266.062816)scale(0.1 -0.1)">
       <use xlink:href="#DejaVuSans-49"/>
       <use x="63.623047" xlink:href="#DejaVuSans-53"/>
       <use x="127.246094" xlink:href="#DejaVuSans-48"/>
       <use x="190.869141" xlink:href="#DejaVuSans-48"/>
       <use x="254.492188" xlink:href="#DejaVuSans-48"/>
       <use x="318.115234" xlink:href="#DejaVuSans-48"/>
      </g>
     </g>
    </g>
    <g id="ytick_5">
     <g id="line2d_27">
      <path clip-path="url(#p721d4e0bb2)" d="M 70.22 219.671462 
L 555.615 219.671462 
" style="fill:none;stroke:#000000;stroke-linecap:square;stroke-opacity:0.2;stroke-width:0.8;"/>
     </g>
     <g id="line2d_28">
      <g>
       <use style="stroke:#000000;stroke-width:0.8;" x="70.22" xlink:href="#m126b8db84f" y="219.671462"/>
      </g>
     </g>
     <g id="text_15">
      <!-- 200000 -->
      <g transform="translate(25.045 223.470681)scale(0.1 -0.1)">
       <use xlink:href="#DejaVuSans-50"/>
       <use x="63.623047" xlink:href="#DejaVuSans-48"/>
       <use x="127.246094" xlink:href="#DejaVuSans-48"/>
       <use x="190.869141" xlink:href="#DejaVuSans-48"/>
       <use x="254.492188" xlink:href="#DejaVuSans-48"/>
       <use x="318.115234" xlink:href="#DejaVuSans-48"/>
      </g>
     </g>
    </g>
    <g id="ytick_6">
     <g id="line2d_29">
      <path clip-path="url(#p721d4e0bb2)" d="M 70.22 177.079328 
L 555.615 177.079328 
" style="fill:none;stroke:#000000;stroke-linecap:square;stroke-opacity:0.2;stroke-width:0.8;"/>
     </g>
     <g id="line2d_30">
      <g>
       <use style="stroke:#000000;stroke-width:0.8;" x="70.22" xlink:href="#m126b8db84f" y="177.079328"/>
      </g>
     </g>
     <g id="text_16">
      <!-- 250000 -->
      <g transform="translate(25.045 180.878547)scale(0.1 -0.1)">
       <use xlink:href="#DejaVuSans-50"/>
       <use x="63.623047" xlink:href="#DejaVuSans-53"/>
       <use x="127.246094" xlink:href="#DejaVuSans-48"/>
       <use x="190.869141" xlink:href="#DejaVuSans-48"/>
       <use x="254.492188" xlink:href="#DejaVuSans-48"/>
       <use x="318.115234" xlink:href="#DejaVuSans-48"/>
      </g>
     </g>
    </g>
    <g id="ytick_7">
     <g id="line2d_31">
      <path clip-path="url(#p721d4e0bb2)" d="M 70.22 134.487194 
L 555.615 134.487194 
" style="fill:none;stroke:#000000;stroke-linecap:square;stroke-opacity:0.2;stroke-width:0.8;"/>
     </g>
     <g id="line2d_32">
      <g>
       <use style="stroke:#000000;stroke-width:0.8;" x="70.22" xlink:href="#m126b8db84f" y="134.487194"/>
      </g>
     </g>
     <g id="text_17">
      <!-- 300000 -->
      <g transform="translate(25.045 138.286412)scale(0.1 -0.1)">
       <use xlink:href="#DejaVuSans-51"/>
       <use x="63.623047" xlink:href="#DejaVuSans-48"/>
       <use x="127.246094" xlink:href="#DejaVuSans-48"/>
       <use x="190.869141" xlink:href="#DejaVuSans-48"/>
       <use x="254.492188" xlink:href="#DejaVuSans-48"/>
       <use x="318.115234" xlink:href="#DejaVuSans-48"/>
      </g>
     </g>
    </g>
    <g id="ytick_8">
     <g id="line2d_33">
      <path clip-path="url(#p721d4e0bb2)" d="M 70.22 91.895059 
L 555.615 91.895059 
" style="fill:none;stroke:#000000;stroke-linecap:square;stroke-opacity:0.2;stroke-width:0.8;"/>
     </g>
     <g id="line2d_34">
      <g>
       <use style="stroke:#000000;stroke-width:0.8;" x="70.22" xlink:href="#m126b8db84f" y="91.895059"/>
      </g>
     </g>
     <g id="text_18">
      <!-- 350000 -->
      <g transform="translate(25.045 95.694278)scale(0.1 -0.1)">
       <use xlink:href="#DejaVuSans-51"/>
       <use x="63.623047" xlink:href="#DejaVuSans-53"/>
       <use x="127.246094" xlink:href="#DejaVuSans-48"/>
       <use x="190.869141" xlink:href="#DejaVuSans-48"/>
       <use x="254.492188" xlink:href="#DejaVuSans-48"/>
       <use x="318.115234" xlink:href="#DejaVuSans-48"/>
      </g>
     </g>
    </g>
    <g id="ytick_9">
     <g id="line2d_35">
      <path clip-path="url(#p721d4e0bb2)" d="M 70.22 49.302925 
L 555.615 49.302925 
" style="fill:none;stroke:#000000;stroke-linecap:square;stroke-opacity:0.2;stroke-width:0.8;"/>
     </g>
     <g id="line2d_36">
      <g>
       <use style="stroke:#000000;stroke-width:0.8;" x="70.22" xlink:href="#m126b8db84f" y="49.302925"/>
      </g>
     </g>
     <g id="text_19">
      <!-- 400000 -->
      <g transform="translate(25.045 53.102144)scale(0.1 -0.1)">
       <use xlink:href="#DejaVuSans-52"/>
       <use x="63.623047" xlink:href="#DejaVuSans-48"/>
       <use x="127.246094" xlink:href="#DejaVuSans-48"/>
       <use x="190.869141" xlink:href="#DejaVuSans-48"/>
       <use x="254.492188" xlink:href="#DejaVuSans-48"/>
       <use x="318.115234" xlink:href="#DejaVuSans-48"/>
      </g>
     </g>
    </g>
    <g id="text_20">
     <!-- # distinct 27-mers -->
     <defs>
      <path d="M 51.125 44 
L 36.921875 44 
L 32.8125 27.6875 
L 47.125 27.6875 
z
M 43.796875 71.78125 
L 38.71875 51.515625 
L 52.984375 51.515625 
L 58.109375 71.78125 
L 65.921875 71.78125 
L 60.890625 51.515625 
L 76.125 51.515625 
L 76.125 44 
L 58.984375 44 
L 54.984375 27.6875 
L 70.515625 27.6875 
L 70.515625 20.21875 
L 53.078125 20.21875 
L 48 0 
L 40.1875 0 
L 45.21875 20.21875 
L 30.90625 20.21875 
L 25.875 0 
L 18.015625 0 
L 23.09375 20.21875 
L 7.71875 20.21875 
L 7.71875 27.6875 
L 24.90625 27.6875 
L 29 44 
L 13.28125 44 
L 13.28125 51.515625 
L 30.90625 51.515625 
L 35.890625 71.78125 
z
" id="DejaVuSans-35"/>
      <path d="M 45.40625 46.390625 
L 45.40625 75.984375 
L 54.390625 75.984375 
L 54.390625 0 
L 45.40625 0 
L 45.40625 8.203125 
Q 42.578125 3.328125 38.25 0.953125 
Q 33.9375 -1.421875 27.875 -1.421875 
Q 17.96875 -1.421875 11.734375 6.484375 
Q 5.515625 14.40625 5.515625 27.296875 
Q 5.515625 40.1875 11.734375 48.09375 
Q 17.96875 56 27.875 56 
Q 33.9375 56 38.25 53.625 
Q 42.578125 51.265625 45.40625 46.390625 
z
M 14.796875 27.296875 
Q 14.796875 17.390625 18.875 11.75 
Q 22.953125 6.109375 30.078125 6.109375 
Q 37.203125 6.109375 41.296875 11.75 
Q 45.40625 17.390625 45.40625 27.296875 
Q 45.40625 37.203125 41.296875 42.84375 
Q 37.203125 48.484375 30.078125 48.484375 
Q 22.953125 48.484375 18.875 42.84375 
Q 14.796875 37.203125 14.796875 27.296875 
z
" id="DejaVuSans-100"/>
      <path d="M 9.421875 54.6875 
L 18.40625 54.6875 
L 18.40625 0 
L 9.421875 0 
z
M 9.421875 75.984375 
L 18.40625 75.984375 
L 18.40625 64.59375 
L 9.421875 64.59375 
z
" id="DejaVuSans-105"/>
      <path d="M 44.28125 53.078125 
L 44.28125 44.578125 
Q 40.484375 46.53125 36.375 47.5 
Q 32.28125 48.484375 27.875 48.484375 
Q 21.1875 48.484375 17.84375 46.4375 
Q 14.5 44.390625 14.5 40.28125 
Q 14.5 37.15625 16.890625 35.375 
Q 19.28125 33.59375 26.515625 31.984375 
L 29.59375 31.296875 
Q 39.15625 29.25 43.1875 25.515625 
Q 47.21875 21.78125 47.21875 15.09375 
Q 47.21875 7.46875 41.1875 3.015625 
Q 35.15625 -1.421875 24.609375 -1.421875 
Q 20.21875 -1.421875 15.453125 -0.5625 
Q 10.6875 0.296875 5.421875 2 
L 5.421875 11.28125 
Q 10.40625 8.6875 15.234375 7.390625 
Q 20.0625 6.109375 24.8125 6.109375 
Q 31.15625 6.109375 34.5625 8.28125 
Q 37.984375 10.453125 37.984375 14.40625 
Q 37.984375 18.0625 35.515625 20.015625 
Q 33.0625 21.96875 24.703125 23.78125 
L 21.578125 24.515625 
Q 13.234375 26.265625 9.515625 29.90625 
Q 5.8125 33.546875 5.8125 39.890625 
Q 5.8125 47.609375 11.28125 51.796875 
Q 16.75 56 26.8125 56 
Q 31.78125 56 36.171875 55.265625 
Q 40.578125 54.546875 44.28125 53.078125 
z
" id="DejaVuSans-115"/>
      <path d="M 18.3125 70.21875 
L 18.3125 54.6875 
L 36.8125 54.6875 
L 36.8125 47.703125 
L 18.3125 47.703125 
L 18.3125 18.015625 
Q 18.3125 11.328125 20.140625 9.421875 
Q 21.96875 7.515625 27.59375 7.515625 
L 36.8125 7.515625 
L 36.8125 0 
L 27.59375 0 
Q 17.1875 0 13.234375 3.875 
Q 9.28125 7.765625 9.28125 18.015625 
L 9.28125 47.703125 
L 2.6875 47.703125 
L 2.6875 54.6875 
L 9.28125 54.6875 
L 9.28125 70.21875 
z
" id="DejaVuSans-116"/>
     </defs>
     <g transform="translate(18.965313 254.276719)rotate(-90)scale(0.1 -0.1)">
      <use xlink:href="#DejaVuSans-35"/>
      <use x="83.789062" xlink:href="#DejaVuSans-32"/>
      <use x="115.576172" xlink:href="#DejaVuSans-100"/>
      <use x="179.052734" xlink:href="#DejaVuSans-105"/>
      <use x="206.835938" xlink:href="#DejaVuSans-115"/>
      <use x="258.935547" xlink:href="#DejaVuSans-116"/>
      <use x="298.144531" xlink:href="#DejaVuSans-105"/>
      <use x="325.927734" xlink:href="#DejaVuSans-110"/>
      <use x="389.306641" xlink:href="#DejaVuSans-99"/>
      <use x="444.287109" xlink:href="#DejaVuSans-116"/>
      <use x="483.496094" xlink:href="#DejaVuSans-32"/>
      <use x="515.283203" xlink:href="#DejaVuSans-50"/>
      <use x="578.90625" xlink:href="#DejaVuSans-55"/>
      <use x="642.529297" xlink:href="#DejaVuSans-45"/>
      <use x="678.613281" xlink:href="#DejaVuSans-109"/>
      <use x="776.025391" xlink:href="#DejaVuSans-101"/>
      <use x="837.548828" xlink:href="#DejaVuSans-114"/>
      <use x="878.662109" xlink:href="#DejaVuSans-115"/>
     </g>
    </g>
   </g>
   <g id="line2d_37">
    <path clip-path="url(#p721d4e0bb2)" d="M 75.30016 -1 
L 76.287438 191.233546 
L 77.500925 283.245334 
L 78.714413 322.844093 
L 79.9279 345.645366 
L 81.141388 357.91616 
L 82.354875 366.098961 
L 83.568363 371.924713 
L 84.78185 375.974374 
L 85.995338 379.004378 
L 88.422313 382.588932 
L 89.6358 383.370924 
L 92.062775 384.259396 
L 93.276263 384.314765 
L 95.703238 384.108619 
L 96.916725 382.941595 
L 98.130213 382.84704 
L 99.3437 382.44923 
L 100.557188 381.543721 
L 102.984163 378.589531 
L 104.19765 375.902819 
L 105.411138 373.658213 
L 106.624625 369.832588 
L 109.0516 361.48027 
L 110.265088 354.967933 
L 112.692063 344.074569 
L 113.90555 335.459883 
L 115.119038 329.278913 
L 117.546013 315.882835 
L 118.7595 309.292128 
L 119.972988 305.659871 
L 121.186475 302.889678 
L 122.399963 301.640877 
L 123.61345 302.700569 
L 124.826938 301.441546 
L 126.040425 303.319007 
L 127.253913 307.396778 
L 128.4674 310.152489 
L 129.680888 314.338444 
L 130.894375 319.120689 
L 133.32135 333.188871 
L 135.748325 342.778916 
L 138.1753 350.298983 
L 139.388788 351.934521 
L 140.602275 352.651773 
L 143.02925 356.491879 
L 144.242738 354.664677 
L 145.456225 352.617699 
L 146.669713 349.485473 
L 147.8832 346.831983 
L 149.096688 342.792545 
L 151.523663 331.331002 
L 153.950638 314.906623 
L 155.164125 304.638511 
L 156.377612 291.297803 
L 157.5911 279.703372 
L 160.018075 248.965481 
L 161.231563 231.851961 
L 162.44505 218.466105 
L 163.658538 199.997304 
L 164.872025 184.090845 
L 166.085513 170.24755 
L 170.939463 106.482865 
L 172.15295 94.316848 
L 174.579925 65.86871 
L 175.793413 60.235474 
L 177.0069 61.260241 
L 178.220388 58.585455 
L 179.433875 61.539645 
L 180.647363 63.041444 
L 181.86085 70.321291 
L 183.074338 78.819274 
L 184.287825 88.163136 
L 185.501313 102.946866 
L 186.7148 114.316411 
L 187.928288 128.24915 
L 189.141775 144.100238 
L 190.355263 158.056829 
L 192.782238 180.904953 
L 193.995725 194.95695 
L 196.4227 216.918307 
L 197.636188 230.644048 
L 198.849675 243.056248 
L 200.063163 253.957279 
L 201.27665 268.394309 
L 202.490138 279.925703 
L 203.703625 293.118191 
L 204.917113 303.452746 
L 207.344088 325.910727 
L 208.557575 334.930037 
L 210.98455 350.197614 
L 212.198037 355.214967 
L 214.625013 363.245288 
L 215.8385 366.672251 
L 218.265475 371.561828 
L 219.478963 374.407835 
L 220.69245 376.02378 
L 221.905937 378.54779 
L 223.119425 380.599027 
L 224.332913 382.374268 
L 226.759888 385.004758 
L 227.973375 386.049969 
L 229.186863 386.934182 
L 230.40035 387.6361 
L 235.2543 389.021196 
L 240.10825 389.511858 
L 246.175688 389.394303 
L 251.029638 389.624301 
L 257.097075 389.662634 
L 259.52405 389.709485 
L 265.591488 389.631967 
L 271.658925 389.718855 
L 276.512875 389.551894 
L 283.7938 389.537413 
L 286.220775 389.513561 
L 288.64775 389.576598 
L 306.850063 389.675411 
L 309.277038 389.746966 
L 315.344475 389.81341 
L 338.400738 389.874743 
L 348.108638 389.960779 
L 357.816538 389.907113 
L 369.951413 389.936927 
L 372.378388 389.971001 
L 379.659313 389.917335 
L 383.299775 389.953112 
L 385.72675 389.917335 
L 388.153725 389.974408 
L 414.85045 389.968445 
L 422.131375 389.913075 
L 428.198813 389.922446 
L 431.839275 389.927557 
L 435.479738 389.906261 
L 443.97415 389.960779 
L 465.816925 389.96589 
L 488.873188 389.976112 
L 508.288988 389.99826 
L 526.4913 389.970149 
L 543.480125 389.976964 
L 550.76105 389.924149 
L 556.828488 389.914779 
L 556.828488 389.914779 
" style="fill:none;stroke:#cc0000;stroke-linecap:square;stroke-width:1.5;"/>
    <defs>
     <path d="M 0 1.5 
C 0.397805 1.5 0.77937 1.341951 1.06066 1.06066 
C 1.341951 0.77937 1.5 0.397805 1.5 0 
C 1.5 -0.397805 1.341951 -0.77937 1.06066 -1.06066 
C 0.77937 -1.341951 0.397805 -1.5 0 -1.5 
C -0.397805 -1.5 -0.77937 -1.341951 -1.06066 -1.06066 
C -1.341951 -0.77937 -1.5 -0.397805 -1.5 0 
C -1.5 0.397805 -1.341951 0.77937 -1.06066 1.06066 
C -0.77937 1.341951 -0.397805 1.5 0 1.5 
z
" id="mb6f8422947" style="stroke:#cc0000;"/>
    </defs>
    <g clip-path="url(#p721d4e0bb2)">
     <use style="fill:#cc0000;stroke:#cc0000;" x="75.30016" xlink:href="#mb6f8422947" y="-1"/>
     <use style="fill:#cc0000;stroke:#cc0000;" x="76.287438" xlink:href="#mb6f8422947" y="191.233546"/>
     <use style="fill:#cc0000;stroke:#cc0000;" x="77.500925" xlink:href="#mb6f8422947" y="283.245334"/>
     <use style="fill:#cc0000;stroke:#cc0000;" x="78.714413" xlink:href="#mb6f8422947" y="322.844093"/>
     <use style="fill:#cc0000;stroke:#cc0000;" x="79.9279" xlink:href="#mb6f8422947" y="345.645366"/>
     <use style="fill:#cc0000;stroke:#cc0000;" x="81.141388" xlink:href="#mb6f8422947" y="357.91616"/>
     <use style="fill:#cc0000;stroke:#cc0000;" x="82.354875" xlink:href="#mb6f8422947" y="366.098961"/>
     <use style="fill:#cc0000;stroke:#cc0000;" x="83.568363" xlink:href="#mb6f8422947" y="371.924713"/>
     <use style="fill:#cc0000;stroke:#cc0000;" x="84.78185" xlink:href="#mb6f8422947" y="375.974374"/>
     <use style="fill:#cc0000;stroke:#cc0000;" x="85.995338" xlink:href="#mb6f8422947" y="379.004378"/>
     <use style="fill:#cc0000;stroke:#cc0000;" x="87.208825" xlink:href="#mb6f8422947" y="380.87758"/>
     <use style="fill:#cc0000;stroke:#cc0000;" x="88.422313" xlink:href="#mb6f8422947" y="382.588932"/>
     <use style="fill:#cc0000;stroke:#cc0000;" x="89.6358" xlink:href="#mb6f8422947" y="383.370924"/>
     <use style="fill:#cc0000;stroke:#cc0000;" x="90.849288" xlink:href="#mb6f8422947" y="383.810474"/>
     <use style="fill:#cc0000;stroke:#cc0000;" x="92.062775" xlink:href="#mb6f8422947" y="384.259396"/>
     <use style="fill:#cc0000;stroke:#cc0000;" x="93.276263" xlink:href="#mb6f8422947" y="384.314765"/>
     <use style="fill:#cc0000;stroke:#cc0000;" x="94.48975" xlink:href="#mb6f8422947" y="384.179322"/>
     <use style="fill:#cc0000;stroke:#cc0000;" x="95.703238" xlink:href="#mb6f8422947" y="384.108619"/>
     <use style="fill:#cc0000;stroke:#cc0000;" x="96.916725" xlink:href="#mb6f8422947" y="382.941595"/>
     <use style="fill:#cc0000;stroke:#cc0000;" x="98.130213" xlink:href="#mb6f8422947" y="382.84704"/>
     <use style="fill:#cc0000;stroke:#cc0000;" x="99.3437" xlink:href="#mb6f8422947" y="382.44923"/>
     <use style="fill:#cc0000;stroke:#cc0000;" x="100.557188" xlink:href="#mb6f8422947" y="381.543721"/>
     <use style="fill:#cc0000;stroke:#cc0000;" x="101.770675" xlink:href="#mb6f8422947" y="380.013812"/>
     <use style="fill:#cc0000;stroke:#cc0000;" x="102.984163" xlink:href="#mb6f8422947" y="378.589531"/>
     <use style="fill:#cc0000;stroke:#cc0000;" x="104.19765" xlink:href="#mb6f8422947" y="375.902819"/>
     <use style="fill:#cc0000;stroke:#cc0000;" x="105.411138" xlink:href="#mb6f8422947" y="373.658213"/>
     <use style="fill:#cc0000;stroke:#cc0000;" x="106.624625" xlink:href="#mb6f8422947" y="369.832588"/>
     <use style="fill:#cc0000;stroke:#cc0000;" x="107.838113" xlink:href="#mb6f8422947" y="365.463487"/>
     <use style="fill:#cc0000;stroke:#cc0000;" x="109.0516" xlink:href="#mb6f8422947" y="361.48027"/>
     <use style="fill:#cc0000;stroke:#cc0000;" x="110.265088" xlink:href="#mb6f8422947" y="354.967933"/>
     <use style="fill:#cc0000;stroke:#cc0000;" x="111.478575" xlink:href="#mb6f8422947" y="349.303179"/>
     <use style="fill:#cc0000;stroke:#cc0000;" x="112.692063" xlink:href="#mb6f8422947" y="344.074569"/>
     <use style="fill:#cc0000;stroke:#cc0000;" x="113.90555" xlink:href="#mb6f8422947" y="335.459883"/>
     <use style="fill:#cc0000;stroke:#cc0000;" x="115.119038" xlink:href="#mb6f8422947" y="329.278913"/>
     <use style="fill:#cc0000;stroke:#cc0000;" x="116.332525" xlink:href="#mb6f8422947" y="322.316803"/>
     <use style="fill:#cc0000;stroke:#cc0000;" x="117.546013" xlink:href="#mb6f8422947" y="315.882835"/>
     <use style="fill:#cc0000;stroke:#cc0000;" x="118.7595" xlink:href="#mb6f8422947" y="309.292128"/>
     <use style="fill:#cc0000;stroke:#cc0000;" x="119.972988" xlink:href="#mb6f8422947" y="305.659871"/>
     <use style="fill:#cc0000;stroke:#cc0000;" x="121.186475" xlink:href="#mb6f8422947" y="302.889678"/>
     <use style="fill:#cc0000;stroke:#cc0000;" x="122.399963" xlink:href="#mb6f8422947" y="301.640877"/>
     <use style="fill:#cc0000;stroke:#cc0000;" x="123.61345" xlink:href="#mb6f8422947" y="302.700569"/>
     <use style="fill:#cc0000;stroke:#cc0000;" x="124.826938" xlink:href="#mb6f8422947" y="301.441546"/>
     <use style="fill:#cc0000;stroke:#cc0000;" x="126.040425" xlink:href="#mb6f8422947" y="303.319007"/>
     <use style="fill:#cc0000;stroke:#cc0000;" x="127.253913" xlink:href="#mb6f8422947" y="307.396778"/>
     <use style="fill:#cc0000;stroke:#cc0000;" x="128.4674" xlink:href="#mb6f8422947" y="310.152489"/>
     <use style="fill:#cc0000;stroke:#cc0000;" x="129.680888" xlink:href="#mb6f8422947" y="314.338444"/>
     <use style="fill:#cc0000;stroke:#cc0000;" x="130.894375" xlink:href="#mb6f8422947" y="319.120689"/>
     <use style="fill:#cc0000;stroke:#cc0000;" x="132.107863" xlink:href="#mb6f8422947" y="325.851098"/>
     <use style="fill:#cc0000;stroke:#cc0000;" x="133.32135" xlink:href="#mb6f8422947" y="333.188871"/>
     <use style="fill:#cc0000;stroke:#cc0000;" x="134.534838" xlink:href="#mb6f8422947" y="337.954931"/>
     <use style="fill:#cc0000;stroke:#cc0000;" x="135.748325" xlink:href="#mb6f8422947" y="342.778916"/>
     <use style="fill:#cc0000;stroke:#cc0000;" x="136.961813" xlink:href="#mb6f8422947" y="346.722096"/>
     <use style="fill:#cc0000;stroke:#cc0000;" x="138.1753" xlink:href="#mb6f8422947" y="350.298983"/>
     <use style="fill:#cc0000;stroke:#cc0000;" x="139.388788" xlink:href="#mb6f8422947" y="351.934521"/>
     <use style="fill:#cc0000;stroke:#cc0000;" x="140.602275" xlink:href="#mb6f8422947" y="352.651773"/>
     <use style="fill:#cc0000;stroke:#cc0000;" x="141.815763" xlink:href="#mb6f8422947" y="354.552234"/>
     <use style="fill:#cc0000;stroke:#cc0000;" x="143.02925" xlink:href="#mb6f8422947" y="356.491879"/>
     <use style="fill:#cc0000;stroke:#cc0000;" x="144.242738" xlink:href="#mb6f8422947" y="354.664677"/>
     <use style="fill:#cc0000;stroke:#cc0000;" x="145.456225" xlink:href="#mb6f8422947" y="352.617699"/>
     <use style="fill:#cc0000;stroke:#cc0000;" x="146.669713" xlink:href="#mb6f8422947" y="349.485473"/>
     <use style="fill:#cc0000;stroke:#cc0000;" x="147.8832" xlink:href="#mb6f8422947" y="346.831983"/>
     <use style="fill:#cc0000;stroke:#cc0000;" x="149.096688" xlink:href="#mb6f8422947" y="342.792545"/>
     <use style="fill:#cc0000;stroke:#cc0000;" x="150.310175" xlink:href="#mb6f8422947" y="337.305827"/>
     <use style="fill:#cc0000;stroke:#cc0000;" x="151.523663" xlink:href="#mb6f8422947" y="331.331002"/>
     <use style="fill:#cc0000;stroke:#cc0000;" x="152.73715" xlink:href="#mb6f8422947" y="322.975277"/>
     <use style="fill:#cc0000;stroke:#cc0000;" x="153.950638" xlink:href="#mb6f8422947" y="314.906623"/>
     <use style="fill:#cc0000;stroke:#cc0000;" x="155.164125" xlink:href="#mb6f8422947" y="304.638511"/>
     <use style="fill:#cc0000;stroke:#cc0000;" x="156.377612" xlink:href="#mb6f8422947" y="291.297803"/>
     <use style="fill:#cc0000;stroke:#cc0000;" x="157.5911" xlink:href="#mb6f8422947" y="279.703372"/>
     <use style="fill:#cc0000;stroke:#cc0000;" x="158.804588" xlink:href="#mb6f8422947" y="264.925605"/>
     <use style="fill:#cc0000;stroke:#cc0000;" x="160.018075" xlink:href="#mb6f8422947" y="248.965481"/>
     <use style="fill:#cc0000;stroke:#cc0000;" x="161.231563" xlink:href="#mb6f8422947" y="231.851961"/>
     <use style="fill:#cc0000;stroke:#cc0000;" x="162.44505" xlink:href="#mb6f8422947" y="218.466105"/>
     <use style="fill:#cc0000;stroke:#cc0000;" x="163.658538" xlink:href="#mb6f8422947" y="199.997304"/>
     <use style="fill:#cc0000;stroke:#cc0000;" x="164.872025" xlink:href="#mb6f8422947" y="184.090845"/>
     <use style="fill:#cc0000;stroke:#cc0000;" x="166.085513" xlink:href="#mb6f8422947" y="170.24755"/>
     <use style="fill:#cc0000;stroke:#cc0000;" x="167.299" xlink:href="#mb6f8422947" y="154.190315"/>
     <use style="fill:#cc0000;stroke:#cc0000;" x="168.512488" xlink:href="#mb6f8422947" y="138.088784"/>
     <use style="fill:#cc0000;stroke:#cc0000;" x="169.725975" xlink:href="#mb6f8422947" y="122.136326"/>
     <use style="fill:#cc0000;stroke:#cc0000;" x="170.939463" xlink:href="#mb6f8422947" y="106.482865"/>
     <use style="fill:#cc0000;stroke:#cc0000;" x="172.15295" xlink:href="#mb6f8422947" y="94.316848"/>
     <use style="fill:#cc0000;stroke:#cc0000;" x="173.366438" xlink:href="#mb6f8422947" y="79.752894"/>
     <use style="fill:#cc0000;stroke:#cc0000;" x="174.579925" xlink:href="#mb6f8422947" y="65.86871"/>
     <use style="fill:#cc0000;stroke:#cc0000;" x="175.793413" xlink:href="#mb6f8422947" y="60.235474"/>
     <use style="fill:#cc0000;stroke:#cc0000;" x="177.0069" xlink:href="#mb6f8422947" y="61.260241"/>
     <use style="fill:#cc0000;stroke:#cc0000;" x="178.220388" xlink:href="#mb6f8422947" y="58.585455"/>
     <use style="fill:#cc0000;stroke:#cc0000;" x="179.433875" xlink:href="#mb6f8422947" y="61.539645"/>
     <use style="fill:#cc0000;stroke:#cc0000;" x="180.647363" xlink:href="#mb6f8422947" y="63.041444"/>
     <use style="fill:#cc0000;stroke:#cc0000;" x="181.86085" xlink:href="#mb6f8422947" y="70.321291"/>
     <use style="fill:#cc0000;stroke:#cc0000;" x="183.074338" xlink:href="#mb6f8422947" y="78.819274"/>
     <use style="fill:#cc0000;stroke:#cc0000;" x="184.287825" xlink:href="#mb6f8422947" y="88.163136"/>
     <use style="fill:#cc0000;stroke:#cc0000;" x="185.501313" xlink:href="#mb6f8422947" y="102.946866"/>
     <use style="fill:#cc0000;stroke:#cc0000;" x="186.7148" xlink:href="#mb6f8422947" y="114.316411"/>
     <use style="fill:#cc0000;stroke:#cc0000;" x="187.928288" xlink:href="#mb6f8422947" y="128.24915"/>
     <use style="fill:#cc0000;stroke:#cc0000;" x="189.141775" xlink:href="#mb6f8422947" y="144.100238"/>
     <use style="fill:#cc0000;stroke:#cc0000;" x="190.355263" xlink:href="#mb6f8422947" y="158.056829"/>
     <use style="fill:#cc0000;stroke:#cc0000;" x="191.56875" xlink:href="#mb6f8422947" y="169.532002"/>
     <use style="fill:#cc0000;stroke:#cc0000;" x="192.782238" xlink:href="#mb6f8422947" y="180.904953"/>
     <use style="fill:#cc0000;stroke:#cc0000;" x="193.995725" xlink:href="#mb6f8422947" y="194.95695"/>
     <use style="fill:#cc0000;stroke:#cc0000;" x="195.209213" xlink:href="#mb6f8422947" y="206.323087"/>
     <use style="fill:#cc0000;stroke:#cc0000;" x="196.4227" xlink:href="#mb6f8422947" y="216.918307"/>
     <use style="fill:#cc0000;stroke:#cc0000;" x="197.636188" xlink:href="#mb6f8422947" y="230.644048"/>
     <use style="fill:#cc0000;stroke:#cc0000;" x="198.849675" xlink:href="#mb6f8422947" y="243.056248"/>
     <use style="fill:#cc0000;stroke:#cc0000;" x="200.063163" xlink:href="#mb6f8422947" y="253.957279"/>
     <use style="fill:#cc0000;stroke:#cc0000;" x="201.27665" xlink:href="#mb6f8422947" y="268.394309"/>
     <use style="fill:#cc0000;stroke:#cc0000;" x="202.490138" xlink:href="#mb6f8422947" y="279.925703"/>
     <use style="fill:#cc0000;stroke:#cc0000;" x="203.703625" xlink:href="#mb6f8422947" y="293.118191"/>
     <use style="fill:#cc0000;stroke:#cc0000;" x="204.917113" xlink:href="#mb6f8422947" y="303.452746"/>
     <use style="fill:#cc0000;stroke:#cc0000;" x="206.1306" xlink:href="#mb6f8422947" y="314.846994"/>
     <use style="fill:#cc0000;stroke:#cc0000;" x="207.344088" xlink:href="#mb6f8422947" y="325.910727"/>
     <use style="fill:#cc0000;stroke:#cc0000;" x="208.557575" xlink:href="#mb6f8422947" y="334.930037"/>
     <use style="fill:#cc0000;stroke:#cc0000;" x="209.771063" xlink:href="#mb6f8422947" y="342.866656"/>
     <use style="fill:#cc0000;stroke:#cc0000;" x="210.98455" xlink:href="#mb6f8422947" y="350.197614"/>
     <use style="fill:#cc0000;stroke:#cc0000;" x="212.198037" xlink:href="#mb6f8422947" y="355.214967"/>
     <use style="fill:#cc0000;stroke:#cc0000;" x="213.411525" xlink:href="#mb6f8422947" y="359.160703"/>
     <use style="fill:#cc0000;stroke:#cc0000;" x="214.625013" xlink:href="#mb6f8422947" y="363.245288"/>
     <use style="fill:#cc0000;stroke:#cc0000;" x="215.8385" xlink:href="#mb6f8422947" y="366.672251"/>
     <use style="fill:#cc0000;stroke:#cc0000;" x="217.051987" xlink:href="#mb6f8422947" y="369.088077"/>
     <use style="fill:#cc0000;stroke:#cc0000;" x="218.265475" xlink:href="#mb6f8422947" y="371.561828"/>
     <use style="fill:#cc0000;stroke:#cc0000;" x="219.478963" xlink:href="#mb6f8422947" y="374.407835"/>
     <use style="fill:#cc0000;stroke:#cc0000;" x="220.69245" xlink:href="#mb6f8422947" y="376.02378"/>
     <use style="fill:#cc0000;stroke:#cc0000;" x="221.905937" xlink:href="#mb6f8422947" y="378.54779"/>
     <use style="fill:#cc0000;stroke:#cc0000;" x="223.119425" xlink:href="#mb6f8422947" y="380.599027"/>
     <use style="fill:#cc0000;stroke:#cc0000;" x="224.332913" xlink:href="#mb6f8422947" y="382.374268"/>
     <use style="fill:#cc0000;stroke:#cc0000;" x="225.5464" xlink:href="#mb6f8422947" y="383.768734"/>
     <use style="fill:#cc0000;stroke:#cc0000;" x="226.759888" xlink:href="#mb6f8422947" y="385.004758"/>
     <use style="fill:#cc0000;stroke:#cc0000;" x="227.973375" xlink:href="#mb6f8422947" y="386.049969"/>
     <use style="fill:#cc0000;stroke:#cc0000;" x="229.186863" xlink:href="#mb6f8422947" y="386.934182"/>
     <use style="fill:#cc0000;stroke:#cc0000;" x="230.40035" xlink:href="#mb6f8422947" y="387.6361"/>
     <use style="fill:#cc0000;stroke:#cc0000;" x="231.613838" xlink:href="#mb6f8422947" y="388.006652"/>
     <use style="fill:#cc0000;stroke:#cc0000;" x="232.827325" xlink:href="#mb6f8422947" y="388.303945"/>
     <use style="fill:#cc0000;stroke:#cc0000;" x="234.040813" xlink:href="#mb6f8422947" y="388.768199"/>
     <use style="fill:#cc0000;stroke:#cc0000;" x="235.2543" xlink:href="#mb6f8422947" y="389.021196"/>
     <use style="fill:#cc0000;stroke:#cc0000;" x="236.467788" xlink:href="#mb6f8422947" y="389.154935"/>
     <use style="fill:#cc0000;stroke:#cc0000;" x="237.681275" xlink:href="#mb6f8422947" y="389.335526"/>
     <use style="fill:#cc0000;stroke:#cc0000;" x="238.894763" xlink:href="#mb6f8422947" y="389.439451"/>
     <use style="fill:#cc0000;stroke:#cc0000;" x="240.10825" xlink:href="#mb6f8422947" y="389.511858"/>
     <use style="fill:#cc0000;stroke:#cc0000;" x="241.321738" xlink:href="#mb6f8422947" y="389.473525"/>
     <use style="fill:#cc0000;stroke:#cc0000;" x="242.535225" xlink:href="#mb6f8422947" y="389.42071"/>
     <use style="fill:#cc0000;stroke:#cc0000;" x="243.748713" xlink:href="#mb6f8422947" y="389.406229"/>
     <use style="fill:#cc0000;stroke:#cc0000;" x="244.9622" xlink:href="#mb6f8422947" y="389.398562"/>
     <use style="fill:#cc0000;stroke:#cc0000;" x="246.175688" xlink:href="#mb6f8422947" y="389.394303"/>
     <use style="fill:#cc0000;stroke:#cc0000;" x="247.389175" xlink:href="#mb6f8422947" y="389.469265"/>
     <use style="fill:#cc0000;stroke:#cc0000;" x="248.602663" xlink:href="#mb6f8422947" y="389.580857"/>
     <use style="fill:#cc0000;stroke:#cc0000;" x="249.81615" xlink:href="#mb6f8422947" y="389.645597"/>
     <use style="fill:#cc0000;stroke:#cc0000;" x="251.029638" xlink:href="#mb6f8422947" y="389.624301"/>
     <use style="fill:#cc0000;stroke:#cc0000;" x="252.243125" xlink:href="#mb6f8422947" y="389.609819"/>
     <use style="fill:#cc0000;stroke:#cc0000;" x="253.456613" xlink:href="#mb6f8422947" y="389.620893"/>
     <use style="fill:#cc0000;stroke:#cc0000;" x="254.6701" xlink:href="#mb6f8422947" y="389.689041"/>
     <use style="fill:#cc0000;stroke:#cc0000;" x="255.883588" xlink:href="#mb6f8422947" y="389.626856"/>
     <use style="fill:#cc0000;stroke:#cc0000;" x="257.097075" xlink:href="#mb6f8422947" y="389.662634"/>
     <use style="fill:#cc0000;stroke:#cc0000;" x="258.310563" xlink:href="#mb6f8422947" y="389.711189"/>
     <use style="fill:#cc0000;stroke:#cc0000;" x="259.52405" xlink:href="#mb6f8422947" y="389.709485"/>
     <use style="fill:#cc0000;stroke:#cc0000;" x="260.737538" xlink:href="#mb6f8422947" y="389.678819"/>
     <use style="fill:#cc0000;stroke:#cc0000;" x="261.951025" xlink:href="#mb6f8422947" y="389.631116"/>
     <use style="fill:#cc0000;stroke:#cc0000;" x="263.164513" xlink:href="#mb6f8422947" y="389.705226"/>
     <use style="fill:#cc0000;stroke:#cc0000;" x="264.378" xlink:href="#mb6f8422947" y="389.681374"/>
     <use style="fill:#cc0000;stroke:#cc0000;" x="265.591488" xlink:href="#mb6f8422947" y="389.631967"/>
     <use style="fill:#cc0000;stroke:#cc0000;" x="266.804975" xlink:href="#mb6f8422947" y="389.66093"/>
     <use style="fill:#cc0000;stroke:#cc0000;" x="268.018462" xlink:href="#mb6f8422947" y="389.6703"/>
     <use style="fill:#cc0000;stroke:#cc0000;" x="269.23195" xlink:href="#mb6f8422947" y="389.714596"/>
     <use style="fill:#cc0000;stroke:#cc0000;" x="270.445438" xlink:href="#mb6f8422947" y="389.661782"/>
     <use style="fill:#cc0000;stroke:#cc0000;" x="271.658925" xlink:href="#mb6f8422947" y="389.718855"/>
     <use style="fill:#cc0000;stroke:#cc0000;" x="272.872412" xlink:href="#mb6f8422947" y="389.664337"/>
     <use style="fill:#cc0000;stroke:#cc0000;" x="274.0859" xlink:href="#mb6f8422947" y="389.650708"/>
     <use style="fill:#cc0000;stroke:#cc0000;" x="275.299388" xlink:href="#mb6f8422947" y="389.598745"/>
     <use style="fill:#cc0000;stroke:#cc0000;" x="276.512875" xlink:href="#mb6f8422947" y="389.551894"/>
     <use style="fill:#cc0000;stroke:#cc0000;" x="277.726363" xlink:href="#mb6f8422947" y="389.565524"/>
     <use style="fill:#cc0000;stroke:#cc0000;" x="278.93985" xlink:href="#mb6f8422947" y="389.557857"/>
     <use style="fill:#cc0000;stroke:#cc0000;" x="280.153338" xlink:href="#mb6f8422947" y="389.524635"/>
     <use style="fill:#cc0000;stroke:#cc0000;" x="281.366825" xlink:href="#mb6f8422947" y="389.513561"/>
     <use style="fill:#cc0000;stroke:#cc0000;" x="282.580313" xlink:href="#mb6f8422947" y="389.546783"/>
     <use style="fill:#cc0000;stroke:#cc0000;" x="283.7938" xlink:href="#mb6f8422947" y="389.537413"/>
     <use style="fill:#cc0000;stroke:#cc0000;" x="285.007288" xlink:href="#mb6f8422947" y="389.509302"/>
     <use style="fill:#cc0000;stroke:#cc0000;" x="286.220775" xlink:href="#mb6f8422947" y="389.513561"/>
     <use style="fill:#cc0000;stroke:#cc0000;" x="287.434263" xlink:href="#mb6f8422947" y="389.58682"/>
     <use style="fill:#cc0000;stroke:#cc0000;" x="288.64775" xlink:href="#mb6f8422947" y="389.576598"/>
     <use style="fill:#cc0000;stroke:#cc0000;" x="289.861238" xlink:href="#mb6f8422947" y="389.576598"/>
     <use style="fill:#cc0000;stroke:#cc0000;" x="291.074725" xlink:href="#mb6f8422947" y="389.59619"/>
     <use style="fill:#cc0000;stroke:#cc0000;" x="292.288213" xlink:href="#mb6f8422947" y="389.551894"/>
     <use style="fill:#cc0000;stroke:#cc0000;" x="293.5017" xlink:href="#mb6f8422947" y="389.560413"/>
     <use style="fill:#cc0000;stroke:#cc0000;" x="294.715188" xlink:href="#mb6f8422947" y="389.526339"/>
     <use style="fill:#cc0000;stroke:#cc0000;" x="295.928675" xlink:href="#mb6f8422947" y="389.549339"/>
     <use style="fill:#cc0000;stroke:#cc0000;" x="297.142163" xlink:href="#mb6f8422947" y="389.57319"/>
     <use style="fill:#cc0000;stroke:#cc0000;" x="298.35565" xlink:href="#mb6f8422947" y="389.636227"/>
     <use style="fill:#cc0000;stroke:#cc0000;" x="299.569138" xlink:href="#mb6f8422947" y="389.636227"/>
     <use style="fill:#cc0000;stroke:#cc0000;" x="300.782625" xlink:href="#mb6f8422947" y="389.592783"/>
     <use style="fill:#cc0000;stroke:#cc0000;" x="301.996113" xlink:href="#mb6f8422947" y="389.592783"/>
     <use style="fill:#cc0000;stroke:#cc0000;" x="303.2096" xlink:href="#mb6f8422947" y="389.660078"/>
     <use style="fill:#cc0000;stroke:#cc0000;" x="304.423088" xlink:href="#mb6f8422947" y="389.648152"/>
     <use style="fill:#cc0000;stroke:#cc0000;" x="305.636575" xlink:href="#mb6f8422947" y="389.663486"/>
     <use style="fill:#cc0000;stroke:#cc0000;" x="306.850063" xlink:href="#mb6f8422947" y="389.675411"/>
     <use style="fill:#cc0000;stroke:#cc0000;" x="308.06355" xlink:href="#mb6f8422947" y="389.758892"/>
     <use style="fill:#cc0000;stroke:#cc0000;" x="309.277038" xlink:href="#mb6f8422947" y="389.746966"/>
     <use style="fill:#cc0000;stroke:#cc0000;" x="310.490525" xlink:href="#mb6f8422947" y="389.779336"/>
     <use style="fill:#cc0000;stroke:#cc0000;" x="311.704013" xlink:href="#mb6f8422947" y="389.801484"/>
     <use style="fill:#cc0000;stroke:#cc0000;" x="312.9175" xlink:href="#mb6f8422947" y="389.810002"/>
     <use style="fill:#cc0000;stroke:#cc0000;" x="314.130988" xlink:href="#mb6f8422947" y="389.835558"/>
     <use style="fill:#cc0000;stroke:#cc0000;" x="315.344475" xlink:href="#mb6f8422947" y="389.81341"/>
     <use style="fill:#cc0000;stroke:#cc0000;" x="316.557963" xlink:href="#mb6f8422947" y="389.811706"/>
     <use style="fill:#cc0000;stroke:#cc0000;" x="317.77145" xlink:href="#mb6f8422947" y="389.852595"/>
     <use style="fill:#cc0000;stroke:#cc0000;" x="318.984938" xlink:href="#mb6f8422947" y="389.838965"/>
     <use style="fill:#cc0000;stroke:#cc0000;" x="320.198425" xlink:href="#mb6f8422947" y="389.84578"/>
     <use style="fill:#cc0000;stroke:#cc0000;" x="321.411913" xlink:href="#mb6f8422947" y="389.838965"/>
     <use style="fill:#cc0000;stroke:#cc0000;" x="322.6254" xlink:href="#mb6f8422947" y="389.840669"/>
     <use style="fill:#cc0000;stroke:#cc0000;" x="323.838887" xlink:href="#mb6f8422947" y="389.865372"/>
     <use style="fill:#cc0000;stroke:#cc0000;" x="325.052375" xlink:href="#mb6f8422947" y="389.890076"/>
     <use style="fill:#cc0000;stroke:#cc0000;" x="326.265863" xlink:href="#mb6f8422947" y="389.843224"/>
     <use style="fill:#cc0000;stroke:#cc0000;" x="327.47935" xlink:href="#mb6f8422947" y="389.877298"/>
     <use style="fill:#cc0000;stroke:#cc0000;" x="328.692838" xlink:href="#mb6f8422947" y="389.843224"/>
     <use style="fill:#cc0000;stroke:#cc0000;" x="329.906325" xlink:href="#mb6f8422947" y="389.848335"/>
     <use style="fill:#cc0000;stroke:#cc0000;" x="331.119813" xlink:href="#mb6f8422947" y="389.840669"/>
     <use style="fill:#cc0000;stroke:#cc0000;" x="332.3333" xlink:href="#mb6f8422947" y="389.820225"/>
     <use style="fill:#cc0000;stroke:#cc0000;" x="333.546788" xlink:href="#mb6f8422947" y="389.791262"/>
     <use style="fill:#cc0000;stroke:#cc0000;" x="334.760275" xlink:href="#mb6f8422947" y="389.835558"/>
     <use style="fill:#cc0000;stroke:#cc0000;" x="335.973763" xlink:href="#mb6f8422947" y="389.830447"/>
     <use style="fill:#cc0000;stroke:#cc0000;" x="337.18725" xlink:href="#mb6f8422947" y="389.841521"/>
     <use style="fill:#cc0000;stroke:#cc0000;" x="338.400738" xlink:href="#mb6f8422947" y="389.874743"/>
     <use style="fill:#cc0000;stroke:#cc0000;" x="339.614225" xlink:href="#mb6f8422947" y="389.897742"/>
     <use style="fill:#cc0000;stroke:#cc0000;" x="340.827713" xlink:href="#mb6f8422947" y="389.903705"/>
     <use style="fill:#cc0000;stroke:#cc0000;" x="342.0412" xlink:href="#mb6f8422947" y="389.924149"/>
     <use style="fill:#cc0000;stroke:#cc0000;" x="343.254688" xlink:href="#mb6f8422947" y="389.953964"/>
     <use style="fill:#cc0000;stroke:#cc0000;" x="344.468175" xlink:href="#mb6f8422947" y="389.938631"/>
     <use style="fill:#cc0000;stroke:#cc0000;" x="345.681663" xlink:href="#mb6f8422947" y="389.959075"/>
     <use style="fill:#cc0000;stroke:#cc0000;" x="346.89515" xlink:href="#mb6f8422947" y="389.945445"/>
     <use style="fill:#cc0000;stroke:#cc0000;" x="348.108638" xlink:href="#mb6f8422947" y="389.960779"/>
     <use style="fill:#cc0000;stroke:#cc0000;" x="349.322125" xlink:href="#mb6f8422947" y="389.941186"/>
     <use style="fill:#cc0000;stroke:#cc0000;" x="350.535613" xlink:href="#mb6f8422947" y="389.939483"/>
     <use style="fill:#cc0000;stroke:#cc0000;" x="351.7491" xlink:href="#mb6f8422947" y="389.957371"/>
     <use style="fill:#cc0000;stroke:#cc0000;" x="352.962588" xlink:href="#mb6f8422947" y="389.954816"/>
     <use style="fill:#cc0000;stroke:#cc0000;" x="354.176075" xlink:href="#mb6f8422947" y="389.926705"/>
     <use style="fill:#cc0000;stroke:#cc0000;" x="355.389563" xlink:href="#mb6f8422947" y="389.911372"/>
     <use style="fill:#cc0000;stroke:#cc0000;" x="356.60305" xlink:href="#mb6f8422947" y="389.908816"/>
     <use style="fill:#cc0000;stroke:#cc0000;" x="357.816538" xlink:href="#mb6f8422947" y="389.907113"/>
     <use style="fill:#cc0000;stroke:#cc0000;" x="359.030025" xlink:href="#mb6f8422947" y="389.902853"/>
     <use style="fill:#cc0000;stroke:#cc0000;" x="360.243513" xlink:href="#mb6f8422947" y="389.920742"/>
     <use style="fill:#cc0000;stroke:#cc0000;" x="361.457" xlink:href="#mb6f8422947" y="389.854298"/>
     <use style="fill:#cc0000;stroke:#cc0000;" x="362.670488" xlink:href="#mb6f8422947" y="389.844076"/>
     <use style="fill:#cc0000;stroke:#cc0000;" x="363.883975" xlink:href="#mb6f8422947" y="389.870483"/>
     <use style="fill:#cc0000;stroke:#cc0000;" x="365.097463" xlink:href="#mb6f8422947" y="389.866224"/>
     <use style="fill:#cc0000;stroke:#cc0000;" x="366.31095" xlink:href="#mb6f8422947" y="389.869631"/>
     <use style="fill:#cc0000;stroke:#cc0000;" x="367.524438" xlink:href="#mb6f8422947" y="389.904557"/>
     <use style="fill:#cc0000;stroke:#cc0000;" x="368.737925" xlink:href="#mb6f8422947" y="389.886668"/>
     <use style="fill:#cc0000;stroke:#cc0000;" x="369.951413" xlink:href="#mb6f8422947" y="389.936927"/>
     <use style="fill:#cc0000;stroke:#cc0000;" x="371.1649" xlink:href="#mb6f8422947" y="389.977815"/>
     <use style="fill:#cc0000;stroke:#cc0000;" x="372.378388" xlink:href="#mb6f8422947" y="389.971001"/>
     <use style="fill:#cc0000;stroke:#cc0000;" x="373.591875" xlink:href="#mb6f8422947" y="389.946297"/>
     <use style="fill:#cc0000;stroke:#cc0000;" x="374.805363" xlink:href="#mb6f8422947" y="389.932668"/>
     <use style="fill:#cc0000;stroke:#cc0000;" x="376.01885" xlink:href="#mb6f8422947" y="389.902001"/>
     <use style="fill:#cc0000;stroke:#cc0000;" x="377.232338" xlink:href="#mb6f8422947" y="389.93352"/>
     <use style="fill:#cc0000;stroke:#cc0000;" x="378.445825" xlink:href="#mb6f8422947" y="389.932668"/>
     <use style="fill:#cc0000;stroke:#cc0000;" x="379.659313" xlink:href="#mb6f8422947" y="389.917335"/>
     <use style="fill:#cc0000;stroke:#cc0000;" x="380.8728" xlink:href="#mb6f8422947" y="389.943742"/>
     <use style="fill:#cc0000;stroke:#cc0000;" x="382.086288" xlink:href="#mb6f8422947" y="389.934372"/>
     <use style="fill:#cc0000;stroke:#cc0000;" x="383.299775" xlink:href="#mb6f8422947" y="389.953112"/>
     <use style="fill:#cc0000;stroke:#cc0000;" x="384.513263" xlink:href="#mb6f8422947" y="389.884113"/>
     <use style="fill:#cc0000;stroke:#cc0000;" x="385.72675" xlink:href="#mb6f8422947" y="389.917335"/>
     <use style="fill:#cc0000;stroke:#cc0000;" x="386.940238" xlink:href="#mb6f8422947" y="389.979519"/>
     <use style="fill:#cc0000;stroke:#cc0000;" x="388.153725" xlink:href="#mb6f8422947" y="389.974408"/>
     <use style="fill:#cc0000;stroke:#cc0000;" x="389.367213" xlink:href="#mb6f8422947" y="389.978667"/>
     <use style="fill:#cc0000;stroke:#cc0000;" x="390.5807" xlink:href="#mb6f8422947" y="389.981223"/>
     <use style="fill:#cc0000;stroke:#cc0000;" x="391.794188" xlink:href="#mb6f8422947" y="389.979519"/>
     <use style="fill:#cc0000;stroke:#cc0000;" x="393.007675" xlink:href="#mb6f8422947" y="389.971001"/>
     <use style="fill:#cc0000;stroke:#cc0000;" x="394.221163" xlink:href="#mb6f8422947" y="389.957371"/>
     <use style="fill:#cc0000;stroke:#cc0000;" x="395.43465" xlink:href="#mb6f8422947" y="389.955668"/>
     <use style="fill:#cc0000;stroke:#cc0000;" x="396.648138" xlink:href="#mb6f8422947" y="389.939483"/>
     <use style="fill:#cc0000;stroke:#cc0000;" x="397.861625" xlink:href="#mb6f8422947" y="389.983778"/>
     <use style="fill:#cc0000;stroke:#cc0000;" x="399.075113" xlink:href="#mb6f8422947" y="389.988889"/>
     <use style="fill:#cc0000;stroke:#cc0000;" x="400.2886" xlink:href="#mb6f8422947" y="389.963334"/>
     <use style="fill:#cc0000;stroke:#cc0000;" x="401.502088" xlink:href="#mb6f8422947" y="389.965038"/>
     <use style="fill:#cc0000;stroke:#cc0000;" x="402.715575" xlink:href="#mb6f8422947" y="389.956519"/>
     <use style="fill:#cc0000;stroke:#cc0000;" x="403.929063" xlink:href="#mb6f8422947" y="389.945445"/>
     <use style="fill:#cc0000;stroke:#cc0000;" x="405.14255" xlink:href="#mb6f8422947" y="389.925001"/>
     <use style="fill:#cc0000;stroke:#cc0000;" x="406.356038" xlink:href="#mb6f8422947" y="389.93352"/>
     <use style="fill:#cc0000;stroke:#cc0000;" x="407.569525" xlink:href="#mb6f8422947" y="389.949705"/>
     <use style="fill:#cc0000;stroke:#cc0000;" x="408.783013" xlink:href="#mb6f8422947" y="389.973556"/>
     <use style="fill:#cc0000;stroke:#cc0000;" x="409.9965" xlink:href="#mb6f8422947" y="389.976964"/>
     <use style="fill:#cc0000;stroke:#cc0000;" x="411.209988" xlink:href="#mb6f8422947" y="389.965038"/>
     <use style="fill:#cc0000;stroke:#cc0000;" x="412.423475" xlink:href="#mb6f8422947" y="389.969297"/>
     <use style="fill:#cc0000;stroke:#cc0000;" x="413.636963" xlink:href="#mb6f8422947" y="389.970149"/>
     <use style="fill:#cc0000;stroke:#cc0000;" x="414.85045" xlink:href="#mb6f8422947" y="389.968445"/>
     <use style="fill:#cc0000;stroke:#cc0000;" x="416.063938" xlink:href="#mb6f8422947" y="389.943742"/>
     <use style="fill:#cc0000;stroke:#cc0000;" x="417.277425" xlink:href="#mb6f8422947" y="389.941186"/>
     <use style="fill:#cc0000;stroke:#cc0000;" x="418.490913" xlink:href="#mb6f8422947" y="389.962482"/>
     <use style="fill:#cc0000;stroke:#cc0000;" x="419.7044" xlink:href="#mb6f8422947" y="389.954816"/>
     <use style="fill:#cc0000;stroke:#cc0000;" x="420.917888" xlink:href="#mb6f8422947" y="389.930964"/>
     <use style="fill:#cc0000;stroke:#cc0000;" x="422.131375" xlink:href="#mb6f8422947" y="389.913075"/>
     <use style="fill:#cc0000;stroke:#cc0000;" x="423.344863" xlink:href="#mb6f8422947" y="389.931816"/>
     <use style="fill:#cc0000;stroke:#cc0000;" x="424.55835" xlink:href="#mb6f8422947" y="389.938631"/>
     <use style="fill:#cc0000;stroke:#cc0000;" x="425.771838" xlink:href="#mb6f8422947" y="389.928409"/>
     <use style="fill:#cc0000;stroke:#cc0000;" x="426.985325" xlink:href="#mb6f8422947" y="389.950557"/>
     <use style="fill:#cc0000;stroke:#cc0000;" x="428.198813" xlink:href="#mb6f8422947" y="389.922446"/>
     <use style="fill:#cc0000;stroke:#cc0000;" x="429.4123" xlink:href="#mb6f8422947" y="389.900298"/>
     <use style="fill:#cc0000;stroke:#cc0000;" x="430.625788" xlink:href="#mb6f8422947" y="389.924149"/>
     <use style="fill:#cc0000;stroke:#cc0000;" x="431.839275" xlink:href="#mb6f8422947" y="389.927557"/>
     <use style="fill:#cc0000;stroke:#cc0000;" x="433.052763" xlink:href="#mb6f8422947" y="389.955668"/>
     <use style="fill:#cc0000;stroke:#cc0000;" x="434.26625" xlink:href="#mb6f8422947" y="389.911372"/>
     <use style="fill:#cc0000;stroke:#cc0000;" x="435.479738" xlink:href="#mb6f8422947" y="389.906261"/>
     <use style="fill:#cc0000;stroke:#cc0000;" x="436.693225" xlink:href="#mb6f8422947" y="389.899446"/>
     <use style="fill:#cc0000;stroke:#cc0000;" x="437.906713" xlink:href="#mb6f8422947" y="389.886668"/>
     <use style="fill:#cc0000;stroke:#cc0000;" x="439.1202" xlink:href="#mb6f8422947" y="389.907964"/>
     <use style="fill:#cc0000;stroke:#cc0000;" x="440.333688" xlink:href="#mb6f8422947" y="389.920742"/>
     <use style="fill:#cc0000;stroke:#cc0000;" x="441.547175" xlink:href="#mb6f8422947" y="389.934372"/>
     <use style="fill:#cc0000;stroke:#cc0000;" x="442.760663" xlink:href="#mb6f8422947" y="389.950557"/>
     <use style="fill:#cc0000;stroke:#cc0000;" x="443.97415" xlink:href="#mb6f8422947" y="389.960779"/>
     <use style="fill:#cc0000;stroke:#cc0000;" x="445.187638" xlink:href="#mb6f8422947" y="389.966742"/>
     <use style="fill:#cc0000;stroke:#cc0000;" x="446.401125" xlink:href="#mb6f8422947" y="389.983778"/>
     <use style="fill:#cc0000;stroke:#cc0000;" x="447.614613" xlink:href="#mb6f8422947" y="389.991445"/>
     <use style="fill:#cc0000;stroke:#cc0000;" x="448.8281" xlink:href="#mb6f8422947" y="389.991445"/>
     <use style="fill:#cc0000;stroke:#cc0000;" x="450.041588" xlink:href="#mb6f8422947" y="389.999112"/>
     <use style="fill:#cc0000;stroke:#cc0000;" x="451.255075" xlink:href="#mb6f8422947" y="390.017"/>
     <use style="fill:#cc0000;stroke:#cc0000;" x="452.468563" xlink:href="#mb6f8422947" y="389.999963"/>
     <use style="fill:#cc0000;stroke:#cc0000;" x="453.68205" xlink:href="#mb6f8422947" y="390.005074"/>
     <use style="fill:#cc0000;stroke:#cc0000;" x="454.895538" xlink:href="#mb6f8422947" y="389.977815"/>
     <use style="fill:#cc0000;stroke:#cc0000;" x="456.109025" xlink:href="#mb6f8422947" y="389.988038"/>
     <use style="fill:#cc0000;stroke:#cc0000;" x="457.322513" xlink:href="#mb6f8422947" y="389.98463"/>
     <use style="fill:#cc0000;stroke:#cc0000;" x="458.536" xlink:href="#mb6f8422947" y="389.992297"/>
     <use style="fill:#cc0000;stroke:#cc0000;" x="459.749488" xlink:href="#mb6f8422947" y="389.977815"/>
     <use style="fill:#cc0000;stroke:#cc0000;" x="460.962975" xlink:href="#mb6f8422947" y="389.972704"/>
     <use style="fill:#cc0000;stroke:#cc0000;" x="462.176463" xlink:href="#mb6f8422947" y="389.988038"/>
     <use style="fill:#cc0000;stroke:#cc0000;" x="463.38995" xlink:href="#mb6f8422947" y="389.967593"/>
     <use style="fill:#cc0000;stroke:#cc0000;" x="464.603438" xlink:href="#mb6f8422947" y="389.986334"/>
     <use style="fill:#cc0000;stroke:#cc0000;" x="465.816925" xlink:href="#mb6f8422947" y="389.96589"/>
     <use style="fill:#cc0000;stroke:#cc0000;" x="467.030413" xlink:href="#mb6f8422947" y="389.960779"/>
     <use style="fill:#cc0000;stroke:#cc0000;" x="468.2439" xlink:href="#mb6f8422947" y="389.950557"/>
     <use style="fill:#cc0000;stroke:#cc0000;" x="469.457388" xlink:href="#mb6f8422947" y="389.956519"/>
     <use style="fill:#cc0000;stroke:#cc0000;" x="470.670875" xlink:href="#mb6f8422947" y="389.972704"/>
     <use style="fill:#cc0000;stroke:#cc0000;" x="471.884363" xlink:href="#mb6f8422947" y="389.967593"/>
     <use style="fill:#cc0000;stroke:#cc0000;" x="473.09785" xlink:href="#mb6f8422947" y="389.994"/>
     <use style="fill:#cc0000;stroke:#cc0000;" x="474.311338" xlink:href="#mb6f8422947" y="389.985482"/>
     <use style="fill:#cc0000;stroke:#cc0000;" x="475.524825" xlink:href="#mb6f8422947" y="389.96163"/>
     <use style="fill:#cc0000;stroke:#cc0000;" x="476.738313" xlink:href="#mb6f8422947" y="389.987186"/>
     <use style="fill:#cc0000;stroke:#cc0000;" x="477.9518" xlink:href="#mb6f8422947" y="389.983778"/>
     <use style="fill:#cc0000;stroke:#cc0000;" x="479.165288" xlink:href="#mb6f8422947" y="389.978667"/>
     <use style="fill:#cc0000;stroke:#cc0000;" x="480.378775" xlink:href="#mb6f8422947" y="389.980371"/>
     <use style="fill:#cc0000;stroke:#cc0000;" x="481.592263" xlink:href="#mb6f8422947" y="389.973556"/>
     <use style="fill:#cc0000;stroke:#cc0000;" x="482.80575" xlink:href="#mb6f8422947" y="389.97526"/>
     <use style="fill:#cc0000;stroke:#cc0000;" x="484.019238" xlink:href="#mb6f8422947" y="389.967593"/>
     <use style="fill:#cc0000;stroke:#cc0000;" x="485.232725" xlink:href="#mb6f8422947" y="389.954816"/>
     <use style="fill:#cc0000;stroke:#cc0000;" x="486.446213" xlink:href="#mb6f8422947" y="389.958223"/>
     <use style="fill:#cc0000;stroke:#cc0000;" x="487.6597" xlink:href="#mb6f8422947" y="389.955668"/>
     <use style="fill:#cc0000;stroke:#cc0000;" x="488.873188" xlink:href="#mb6f8422947" y="389.976112"/>
     <use style="fill:#cc0000;stroke:#cc0000;" x="490.086675" xlink:href="#mb6f8422947" y="389.983778"/>
     <use style="fill:#cc0000;stroke:#cc0000;" x="491.300163" xlink:href="#mb6f8422947" y="389.981223"/>
     <use style="fill:#cc0000;stroke:#cc0000;" x="492.51365" xlink:href="#mb6f8422947" y="389.994"/>
     <use style="fill:#cc0000;stroke:#cc0000;" x="493.727138" xlink:href="#mb6f8422947" y="389.990593"/>
     <use style="fill:#cc0000;stroke:#cc0000;" x="494.940625" xlink:href="#mb6f8422947" y="390.001667"/>
     <use style="fill:#cc0000;stroke:#cc0000;" x="496.154113" xlink:href="#mb6f8422947" y="389.99826"/>
     <use style="fill:#cc0000;stroke:#cc0000;" x="497.3676" xlink:href="#mb6f8422947" y="390.002519"/>
     <use style="fill:#cc0000;stroke:#cc0000;" x="498.581088" xlink:href="#mb6f8422947" y="390.000815"/>
     <use style="fill:#cc0000;stroke:#cc0000;" x="499.794575" xlink:href="#mb6f8422947" y="389.995704"/>
     <use style="fill:#cc0000;stroke:#cc0000;" x="501.008063" xlink:href="#mb6f8422947" y="389.977815"/>
     <use style="fill:#cc0000;stroke:#cc0000;" x="502.22155" xlink:href="#mb6f8422947" y="389.995704"/>
     <use style="fill:#cc0000;stroke:#cc0000;" x="503.435038" xlink:href="#mb6f8422947" y="389.999963"/>
     <use style="fill:#cc0000;stroke:#cc0000;" x="504.648525" xlink:href="#mb6f8422947" y="389.994"/>
     <use style="fill:#cc0000;stroke:#cc0000;" x="505.862013" xlink:href="#mb6f8422947" y="389.996556"/>
     <use style="fill:#cc0000;stroke:#cc0000;" x="507.0755" xlink:href="#mb6f8422947" y="389.988889"/>
     <use style="fill:#cc0000;stroke:#cc0000;" x="508.288988" xlink:href="#mb6f8422947" y="389.99826"/>
     <use style="fill:#cc0000;stroke:#cc0000;" x="509.502475" xlink:href="#mb6f8422947" y="389.989741"/>
     <use style="fill:#cc0000;stroke:#cc0000;" x="510.715963" xlink:href="#mb6f8422947" y="389.981223"/>
     <use style="fill:#cc0000;stroke:#cc0000;" x="511.92945" xlink:href="#mb6f8422947" y="389.978667"/>
     <use style="fill:#cc0000;stroke:#cc0000;" x="513.142938" xlink:href="#mb6f8422947" y="389.996556"/>
     <use style="fill:#cc0000;stroke:#cc0000;" x="514.356425" xlink:href="#mb6f8422947" y="389.965038"/>
     <use style="fill:#cc0000;stroke:#cc0000;" x="515.569912" xlink:href="#mb6f8422947" y="389.978667"/>
     <use style="fill:#cc0000;stroke:#cc0000;" x="516.7834" xlink:href="#mb6f8422947" y="390.002519"/>
     <use style="fill:#cc0000;stroke:#cc0000;" x="517.996888" xlink:href="#mb6f8422947" y="389.992297"/>
     <use style="fill:#cc0000;stroke:#cc0000;" x="519.210375" xlink:href="#mb6f8422947" y="389.953964"/>
     <use style="fill:#cc0000;stroke:#cc0000;" x="520.423863" xlink:href="#mb6f8422947" y="389.97526"/>
     <use style="fill:#cc0000;stroke:#cc0000;" x="521.63735" xlink:href="#mb6f8422947" y="389.982927"/>
     <use style="fill:#cc0000;stroke:#cc0000;" x="522.850838" xlink:href="#mb6f8422947" y="389.949705"/>
     <use style="fill:#cc0000;stroke:#cc0000;" x="524.064325" xlink:href="#mb6f8422947" y="389.951408"/>
     <use style="fill:#cc0000;stroke:#cc0000;" x="525.277812" xlink:href="#mb6f8422947" y="389.976964"/>
     <use style="fill:#cc0000;stroke:#cc0000;" x="526.4913" xlink:href="#mb6f8422947" y="389.970149"/>
     <use style="fill:#cc0000;stroke:#cc0000;" x="527.704788" xlink:href="#mb6f8422947" y="389.976964"/>
     <use style="fill:#cc0000;stroke:#cc0000;" x="528.918275" xlink:href="#mb6f8422947" y="389.973556"/>
     <use style="fill:#cc0000;stroke:#cc0000;" x="530.131763" xlink:href="#mb6f8422947" y="389.978667"/>
     <use style="fill:#cc0000;stroke:#cc0000;" x="531.34525" xlink:href="#mb6f8422947" y="389.976112"/>
     <use style="fill:#cc0000;stroke:#cc0000;" x="532.558738" xlink:href="#mb6f8422947" y="389.971001"/>
     <use style="fill:#cc0000;stroke:#cc0000;" x="533.772225" xlink:href="#mb6f8422947" y="389.996556"/>
     <use style="fill:#cc0000;stroke:#cc0000;" x="534.985712" xlink:href="#mb6f8422947" y="389.982927"/>
     <use style="fill:#cc0000;stroke:#cc0000;" x="536.1992" xlink:href="#mb6f8422947" y="389.971001"/>
     <use style="fill:#cc0000;stroke:#cc0000;" x="537.412688" xlink:href="#mb6f8422947" y="389.980371"/>
     <use style="fill:#cc0000;stroke:#cc0000;" x="538.626175" xlink:href="#mb6f8422947" y="389.981223"/>
     <use style="fill:#cc0000;stroke:#cc0000;" x="539.839663" xlink:href="#mb6f8422947" y="389.954816"/>
     <use style="fill:#cc0000;stroke:#cc0000;" x="541.05315" xlink:href="#mb6f8422947" y="389.992297"/>
     <use style="fill:#cc0000;stroke:#cc0000;" x="542.266638" xlink:href="#mb6f8422947" y="389.971001"/>
     <use style="fill:#cc0000;stroke:#cc0000;" x="543.480125" xlink:href="#mb6f8422947" y="389.976964"/>
     <use style="fill:#cc0000;stroke:#cc0000;" x="544.693612" xlink:href="#mb6f8422947" y="389.954816"/>
     <use style="fill:#cc0000;stroke:#cc0000;" x="545.9071" xlink:href="#mb6f8422947" y="389.948853"/>
     <use style="fill:#cc0000;stroke:#cc0000;" x="547.120588" xlink:href="#mb6f8422947" y="389.955668"/>
     <use style="fill:#cc0000;stroke:#cc0000;" x="548.334075" xlink:href="#mb6f8422947" y="389.969297"/>
     <use style="fill:#cc0000;stroke:#cc0000;" x="549.547563" xlink:href="#mb6f8422947" y="389.957371"/>
     <use style="fill:#cc0000;stroke:#cc0000;" x="550.76105" xlink:href="#mb6f8422947" y="389.924149"/>
     <use style="fill:#cc0000;stroke:#cc0000;" x="551.974537" xlink:href="#mb6f8422947" y="389.942038"/>
     <use style="fill:#cc0000;stroke:#cc0000;" x="553.188025" xlink:href="#mb6f8422947" y="389.927557"/>
     <use style="fill:#cc0000;stroke:#cc0000;" x="554.401512" xlink:href="#mb6f8422947" y="389.915631"/>
     <use style="fill:#cc0000;stroke:#cc0000;" x="555.615" xlink:href="#mb6f8422947" y="389.921594"/>
     <use style="fill:#cc0000;stroke:#cc0000;" x="556.828488" xlink:href="#mb6f8422947" y="389.914779"/>
    </g>
   </g>
   <g id="patch_3">
    <path d="M 70.22 390.04 
L 70.22 25.44 
" style="fill:none;stroke:#000000;stroke-linecap:square;stroke-linejoin:miter;stroke-width:0.8;"/>
   </g>
   <g id="patch_4">
    <path d="M 555.615 390.04 
L 555.615 25.44 
" style="fill:none;stroke:#000000;stroke-linecap:square;stroke-linejoin:miter;stroke-width:0.8;"/>
   </g>
   <g id="patch_5">
    <path d="M 70.22 390.04 
L 555.615 390.04 
" style="fill:none;stroke:#000000;stroke-linecap:square;stroke-linejoin:miter;stroke-width:0.8;"/>
   </g>
   <g id="patch_6">
    <path d="M 70.22 25.44 
L 555.615 25.44 
" style="fill:none;stroke:#000000;stroke-linecap:square;stroke-linejoin:miter;stroke-width:0.8;"/>
   </g>
   <g id="text_21">
    <!-- 27-mer spectra for: ERR9588941.fastq.gz -->
    <defs>
     <path d="M 18.109375 8.203125 
L 18.109375 -20.796875 
L 9.078125 -20.796875 
L 9.078125 54.6875 
L 18.109375 54.6875 
L 18.109375 46.390625 
Q 20.953125 51.265625 25.265625 53.625 
Q 29.59375 56 35.59375 56 
Q 45.5625 56 51.78125 48.09375 
Q 58.015625 40.1875 58.015625 27.296875 
Q 58.015625 14.40625 51.78125 6.484375 
Q 45.5625 -1.421875 35.59375 -1.421875 
Q 29.59375 -1.421875 25.265625 0.953125 
Q 20.953125 3.328125 18.109375 8.203125 
z
M 48.6875 27.296875 
Q 48.6875 37.203125 44.609375 42.84375 
Q 40.53125 48.484375 33.40625 48.484375 
Q 26.265625 48.484375 22.1875 42.84375 
Q 18.109375 37.203125 18.109375 27.296875 
Q 18.109375 17.390625 22.1875 11.75 
Q 26.265625 6.109375 33.40625 6.109375 
Q 40.53125 6.109375 44.609375 11.75 
Q 48.6875 17.390625 48.6875 27.296875 
z
" id="DejaVuSans-112"/>
     <path d="M 34.28125 27.484375 
Q 23.390625 27.484375 19.1875 25 
Q 14.984375 22.515625 14.984375 16.5 
Q 14.984375 11.71875 18.140625 8.90625 
Q 21.296875 6.109375 26.703125 6.109375 
Q 34.1875 6.109375 38.703125 11.40625 
Q 43.21875 16.703125 43.21875 25.484375 
L 43.21875 27.484375 
z
M 52.203125 31.203125 
L 52.203125 0 
L 43.21875 0 
L 43.21875 8.296875 
Q 40.140625 3.328125 35.546875 0.953125 
Q 30.953125 -1.421875 24.3125 -1.421875 
Q 15.921875 -1.421875 10.953125 3.296875 
Q 6 8.015625 6 15.921875 
Q 6 25.140625 12.171875 29.828125 
Q 18.359375 34.515625 30.609375 34.515625 
L 43.21875 34.515625 
L 43.21875 35.40625 
Q 43.21875 41.609375 39.140625 45 
Q 35.0625 48.390625 27.6875 48.390625 
Q 23 48.390625 18.546875 47.265625 
Q 14.109375 46.140625 10.015625 43.890625 
L 10.015625 52.203125 
Q 14.9375 54.109375 19.578125 55.046875 
Q 24.21875 56 28.609375 56 
Q 40.484375 56 46.34375 49.84375 
Q 52.203125 43.703125 52.203125 31.203125 
z
" id="DejaVuSans-97"/>
     <path d="M 30.609375 48.390625 
Q 23.390625 48.390625 19.1875 42.75 
Q 14.984375 37.109375 14.984375 27.296875 
Q 14.984375 17.484375 19.15625 11.84375 
Q 23.34375 6.203125 30.609375 6.203125 
Q 37.796875 6.203125 41.984375 11.859375 
Q 46.1875 17.53125 46.1875 27.296875 
Q 46.1875 37.015625 41.984375 42.703125 
Q 37.796875 48.390625 30.609375 48.390625 
z
M 30.609375 56 
Q 42.328125 56 49.015625 48.375 
Q 55.71875 40.765625 55.71875 27.296875 
Q 55.71875 13.875 49.015625 6.21875 
Q 42.328125 -1.421875 30.609375 -1.421875 
Q 18.84375 -1.421875 12.171875 6.21875 
Q 5.515625 13.875 5.515625 27.296875 
Q 5.515625 40.765625 12.171875 48.375 
Q 18.84375 56 30.609375 56 
z
" id="DejaVuSans-111"/>
     <path d="M 11.71875 12.40625 
L 22.015625 12.40625 
L 22.015625 0 
L 11.71875 0 
z
M 11.71875 51.703125 
L 22.015625 51.703125 
L 22.015625 39.3125 
L 11.71875 39.3125 
z
" id="DejaVuSans-58"/>
     <path d="M 9.8125 72.90625 
L 55.90625 72.90625 
L 55.90625 64.59375 
L 19.671875 64.59375 
L 19.671875 43.015625 
L 54.390625 43.015625 
L 54.390625 34.71875 
L 19.671875 34.71875 
L 19.671875 8.296875 
L 56.78125 8.296875 
L 56.78125 0 
L 9.8125 0 
z
" id="DejaVuSans-69"/>
     <path d="M 44.390625 34.1875 
Q 47.5625 33.109375 50.5625 29.59375 
Q 53.5625 26.078125 56.59375 19.921875 
L 66.609375 0 
L 56 0 
L 46.6875 18.703125 
Q 43.0625 26.03125 39.671875 28.421875 
Q 36.28125 30.8125 30.421875 30.8125 
L 19.671875 30.8125 
L 19.671875 0 
L 9.8125 0 
L 9.8125 72.90625 
L 32.078125 72.90625 
Q 44.578125 72.90625 50.734375 67.671875 
Q 56.890625 62.453125 56.890625 51.90625 
Q 56.890625 45.015625 53.6875 40.46875 
Q 50.484375 35.9375 44.390625 34.1875 
z
M 19.671875 64.796875 
L 19.671875 38.921875 
L 32.078125 38.921875 
Q 39.203125 38.921875 42.84375 42.21875 
Q 46.484375 45.515625 46.484375 51.90625 
Q 46.484375 58.296875 42.84375 61.546875 
Q 39.203125 64.796875 32.078125 64.796875 
z
" id="DejaVuSans-82"/>
     <path d="M 10.984375 1.515625 
L 10.984375 10.5 
Q 14.703125 8.734375 18.5 7.8125 
Q 22.3125 6.890625 25.984375 6.890625 
Q 35.75 6.890625 40.890625 13.453125 
Q 46.046875 20.015625 46.78125 33.40625 
Q 43.953125 29.203125 39.59375 26.953125 
Q 35.25 24.703125 29.984375 24.703125 
Q 19.046875 24.703125 12.671875 31.3125 
Q 6.296875 37.9375 6.296875 49.421875 
Q 6.296875 60.640625 12.9375 67.421875 
Q 19.578125 74.21875 30.609375 74.21875 
Q 43.265625 74.21875 49.921875 64.515625 
Q 56.59375 54.828125 56.59375 36.375 
Q 56.59375 19.140625 48.40625 8.859375 
Q 40.234375 -1.421875 26.421875 -1.421875 
Q 22.703125 -1.421875 18.890625 -0.6875 
Q 15.09375 0.046875 10.984375 1.515625 
z
M 30.609375 32.421875 
Q 37.25 32.421875 41.125 36.953125 
Q 45.015625 41.5 45.015625 49.421875 
Q 45.015625 57.28125 41.125 61.84375 
Q 37.25 66.40625 30.609375 66.40625 
Q 23.96875 66.40625 20.09375 61.84375 
Q 16.21875 57.28125 16.21875 49.421875 
Q 16.21875 41.5 20.09375 36.953125 
Q 23.96875 32.421875 30.609375 32.421875 
z
" id="DejaVuSans-57"/>
     <path d="M 31.78125 34.625 
Q 24.75 34.625 20.71875 30.859375 
Q 16.703125 27.09375 16.703125 20.515625 
Q 16.703125 13.921875 20.71875 10.15625 
Q 24.75 6.390625 31.78125 6.390625 
Q 38.8125 6.390625 42.859375 10.171875 
Q 46.921875 13.96875 46.921875 20.515625 
Q 46.921875 27.09375 42.890625 30.859375 
Q 38.875 34.625 31.78125 34.625 
z
M 21.921875 38.8125 
Q 15.578125 40.375 12.03125 44.71875 
Q 8.5 49.078125 8.5 55.328125 
Q 8.5 64.0625 14.71875 69.140625 
Q 20.953125 74.21875 31.78125 74.21875 
Q 42.671875 74.21875 48.875 69.140625 
Q 55.078125 64.0625 55.078125 55.328125 
Q 55.078125 49.078125 51.53125 44.71875 
Q 48 40.375 41.703125 38.8125 
Q 48.828125 37.15625 52.796875 32.3125 
Q 56.78125 27.484375 56.78125 20.515625 
Q 56.78125 9.90625 50.3125 4.234375 
Q 43.84375 -1.421875 31.78125 -1.421875 
Q 19.734375 -1.421875 13.25 4.234375 
Q 6.78125 9.90625 6.78125 20.515625 
Q 6.78125 27.484375 10.78125 32.3125 
Q 14.796875 37.15625 21.921875 38.8125 
z
M 18.3125 54.390625 
Q 18.3125 48.734375 21.84375 45.5625 
Q 25.390625 42.390625 31.78125 42.390625 
Q 38.140625 42.390625 41.71875 45.5625 
Q 45.3125 48.734375 45.3125 54.390625 
Q 45.3125 60.0625 41.71875 63.234375 
Q 38.140625 66.40625 31.78125 66.40625 
Q 25.390625 66.40625 21.84375 63.234375 
Q 18.3125 60.0625 18.3125 54.390625 
z
" id="DejaVuSans-56"/>
     <path d="M 10.6875 12.40625 
L 21 12.40625 
L 21 0 
L 10.6875 0 
z
" id="DejaVuSans-46"/>
     <path d="M 45.40625 27.984375 
Q 45.40625 37.75 41.375 43.109375 
Q 37.359375 48.484375 30.078125 48.484375 
Q 22.859375 48.484375 18.828125 43.109375 
Q 14.796875 37.75 14.796875 27.984375 
Q 14.796875 18.265625 18.828125 12.890625 
Q 22.859375 7.515625 30.078125 7.515625 
Q 37.359375 7.515625 41.375 12.890625 
Q 45.40625 18.265625 45.40625 27.984375 
z
M 54.390625 6.78125 
Q 54.390625 -7.171875 48.1875 -13.984375 
Q 42 -20.796875 29.203125 -20.796875 
Q 24.46875 -20.796875 20.265625 -20.09375 
Q 16.0625 -19.390625 12.109375 -17.921875 
L 12.109375 -9.1875 
Q 16.0625 -11.328125 19.921875 -12.34375 
Q 23.78125 -13.375 27.78125 -13.375 
Q 36.625 -13.375 41.015625 -8.765625 
Q 45.40625 -4.15625 45.40625 5.171875 
L 45.40625 9.625 
Q 42.625 4.78125 38.28125 2.390625 
Q 33.9375 0 27.875 0 
Q 17.828125 0 11.671875 7.65625 
Q 5.515625 15.328125 5.515625 27.984375 
Q 5.515625 40.671875 11.671875 48.328125 
Q 17.828125 56 27.875 56 
Q 33.9375 56 38.28125 53.609375 
Q 42.625 51.21875 45.40625 46.390625 
L 45.40625 54.6875 
L 54.390625 54.6875 
z
" id="DejaVuSans-103"/>
     <path d="M 5.515625 54.6875 
L 48.1875 54.6875 
L 48.1875 46.484375 
L 14.40625 7.171875 
L 48.1875 7.171875 
L 48.1875 0 
L 4.296875 0 
L 4.296875 8.203125 
L 38.09375 47.515625 
L 5.515625 47.515625 
z
" id="DejaVuSans-122"/>
    </defs>
    <g transform="translate(188.107188 19.44)scale(0.12 -0.12)">
     <use xlink:href="#DejaVuSans-50"/>
     <use x="63.623047" xlink:href="#DejaVuSans-55"/>
     <use x="127.246094" xlink:href="#DejaVuSans-45"/>
     <use x="163.330078" xlink:href="#DejaVuSans-109"/>
     <use x="260.742188" xlink:href="#DejaVuSans-101"/>
     <use x="322.265625" xlink:href="#DejaVuSans-114"/>
     <use x="363.378906" xlink:href="#DejaVuSans-32"/>
     <use x="395.166016" xlink:href="#DejaVuSans-115"/>
     <use x="447.265625" xlink:href="#DejaVuSans-112"/>
     <use x="510.742188" xlink:href="#DejaVuSans-101"/>
     <use x="572.265625" xlink:href="#DejaVuSans-99"/>
     <use x="627.246094" xlink:href="#DejaVuSans-116"/>
     <use x="666.455078" xlink:href="#DejaVuSans-114"/>
     <use x="707.568359" xlink:href="#DejaVuSans-97"/>
     <use x="768.847656" xlink:href="#DejaVuSans-32"/>
     <use x="800.634766" xlink:href="#DejaVuSans-102"/>
     <use x="835.839844" xlink:href="#DejaVuSans-111"/>
     <use x="897.021484" xlink:href="#DejaVuSans-114"/>
     <use x="936.384766" xlink:href="#DejaVuSans-58"/>
     <use x="970.076172" xlink:href="#DejaVuSans-32"/>
     <use x="1001.863281" xlink:href="#DejaVuSans-69"/>
     <use x="1065.046875" xlink:href="#DejaVuSans-82"/>
     <use x="1134.529297" xlink:href="#DejaVuSans-82"/>
     <use x="1204.011719" xlink:href="#DejaVuSans-57"/>
     <use x="1267.634766" xlink:href="#DejaVuSans-53"/>
     <use x="1331.257812" xlink:href="#DejaVuSans-56"/>
     <use x="1394.880859" xlink:href="#DejaVuSans-56"/>
     <use x="1458.503906" xlink:href="#DejaVuSans-57"/>
     <use x="1522.126953" xlink:href="#DejaVuSans-52"/>
     <use x="1585.75" xlink:href="#DejaVuSans-49"/>
     <use x="1649.373047" xlink:href="#DejaVuSans-46"/>
     <use x="1681.160156" xlink:href="#DejaVuSans-102"/>
     <use x="1716.365234" xlink:href="#DejaVuSans-97"/>
     <use x="1777.644531" xlink:href="#DejaVuSans-115"/>
     <use x="1829.744141" xlink:href="#DejaVuSans-116"/>
     <use x="1868.953125" xlink:href="#DejaVuSans-113"/>
     <use x="1932.429688" xlink:href="#DejaVuSans-46"/>
     <use x="1964.216797" xlink:href="#DejaVuSans-103"/>
     <use x="2027.693359" xlink:href="#DejaVuSans-122"/>
    </g>
   </g>
  </g>
 </g>
 <defs>
  <clipPath id="p721d4e0bb2">
   <rect height="364.6" width="485.395" x="70.22" y="25.44"/>
  </clipPath>
 </defs>
</svg>
