<?xml version="1.0" encoding="utf-8" standalone="no"?>
<!DOCTYPE svg PUBLIC "-//W3C//DTD SVG 1.1//EN"
  "http://www.w3.org/Graphics/SVG/1.1/DTD/svg11.dtd">
<!-- Created with matplotlib (https://matplotlib.org/) -->
<svg height="432pt" version="1.1" viewBox="0 0 576 432" width="576pt" xmlns="http://www.w3.org/2000/svg" xmlns:xlink="http://www.w3.org/1999/xlink">
 <defs>
  <style type="text/css">
*{stroke-linecap:butt;stroke-linejoin:round;}
  </style>
 </defs>
 <g id="figure_1">
  <g id="patch_1">
   <path d="M 0 432 
L 576 432 
L 576 0 
L 0 0 
z
" style="fill:#ffffff;"/>
  </g>
  <g id="axes_1">
   <g id="patch_2">
    <path d="M 70.22 390.04 
L 565.2 390.04 
L 565.2 25.44 
L 70.22 25.44 
z
" style="fill:#ffffff;"/>
   </g>
   <g id="matplotlib.axis_1">
    <g id="xtick_1">
     <g id="line2d_1">
      <path clip-path="url(#p95b527d678)" d="M 70.22 390.04 
L 70.22 25.44 
" style="fill:none;stroke:#000000;stroke-linecap:square;stroke-opacity:0.2;stroke-width:0.8;"/>
     </g>
     <g id="line2d_2">
      <defs>
       <path d="M 0 0 
L 0 3.5 
" id="m16a7ee3c78" style="stroke:#000000;stroke-width:0.8;"/>
      </defs>
      <g>
       <use style="stroke:#000000;stroke-width:0.8;" x="70.22" xlink:href="#m16a7ee3c78" y="390.04"/>
      </g>
     </g>
     <g id="text_1">
      <!-- 0 -->
      <defs>
       <path d="M 31.78125 66.40625 
Q 24.171875 66.40625 20.328125 58.90625 
Q 16.5 51.421875 16.5 36.375 
Q 16.5 21.390625 20.328125 13.890625 
Q 24.171875 6.390625 31.78125 6.390625 
Q 39.453125 6.390625 43.28125 13.890625 
Q 47.125 21.390625 47.125 36.375 
Q 47.125 51.421875 43.28125 58.90625 
Q 39.453125 66.40625 31.78125 66.40625 
z
M 31.78125 74.21875 
Q 44.046875 74.21875 50.515625 64.515625 
Q 56.984375 54.828125 56.984375 36.375 
Q 56.984375 17.96875 50.515625 8.265625 
Q 44.046875 -1.421875 31.78125 -1.421875 
Q 19.53125 -1.421875 13.0625 8.265625 
Q 6.59375 17.96875 6.59375 36.375 
Q 6.59375 54.828125 13.0625 64.515625 
Q 19.53125 74.21875 31.78125 74.21875 
z
" id="DejaVuSans-48"/>
      </defs>
      <g transform="translate(67.03875 404.638438)scale(0.1 -0.1)">
       <use xlink:href="#DejaVuSans-48"/>
      </g>
     </g>
    </g>
    <g id="xtick_2">
     <g id="line2d_3">
      <path clip-path="url(#p95b527d678)" d="M 132.403417 390.04 
L 132.403417 25.44 
" style="fill:none;stroke:#000000;stroke-linecap:square;stroke-opacity:0.2;stroke-width:0.8;"/>
     </g>
     <g id="line2d_4">
      <g>
       <use style="stroke:#000000;stroke-width:0.8;" x="132.403417" xlink:href="#m16a7ee3c78" y="390.04"/>
      </g>
     </g>
     <g id="text_2">
      <!-- 25 -->
      <defs>
       <path d="M 19.1875 8.296875 
L 53.609375 8.296875 
L 53.609375 0 
L 7.328125 0 
L 7.328125 8.296875 
Q 12.9375 14.109375 22.625 23.890625 
Q 32.328125 33.6875 34.8125 36.53125 
Q 39.546875 41.84375 41.421875 45.53125 
Q 43.3125 49.21875 43.3125 52.78125 
Q 43.3125 58.59375 39.234375 62.25 
Q 35.15625 65.921875 28.609375 65.921875 
Q 23.96875 65.921875 18.8125 64.3125 
Q 13.671875 62.703125 7.8125 59.421875 
L 7.8125 69.390625 
Q 13.765625 71.78125 18.9375 73 
Q 24.125 74.21875 28.421875 74.21875 
Q 39.75 74.21875 46.484375 68.546875 
Q 53.21875 62.890625 53.21875 53.421875 
Q 53.21875 48.921875 51.53125 44.890625 
Q 49.859375 40.875 45.40625 35.40625 
Q 44.1875 33.984375 37.640625 27.21875 
Q 31.109375 20.453125 19.1875 8.296875 
z
" id="DejaVuSans-50"/>
       <path d="M 10.796875 72.90625 
L 49.515625 72.90625 
L 49.515625 64.59375 
L 19.828125 64.59375 
L 19.828125 46.734375 
Q 21.96875 47.46875 24.109375 47.828125 
Q 26.265625 48.1875 28.421875 48.1875 
Q 40.625 48.1875 47.75 41.5 
Q 54.890625 34.8125 54.890625 23.390625 
Q 54.890625 11.625 47.5625 5.09375 
Q 40.234375 -1.421875 26.90625 -1.421875 
Q 22.3125 -1.421875 17.546875 -0.640625 
Q 12.796875 0.140625 7.71875 1.703125 
L 7.71875 11.625 
Q 12.109375 9.234375 16.796875 8.0625 
Q 21.484375 6.890625 26.703125 6.890625 
Q 35.15625 6.890625 40.078125 11.328125 
Q 45.015625 15.765625 45.015625 23.390625 
Q 45.015625 31 40.078125 35.4375 
Q 35.15625 39.890625 26.703125 39.890625 
Q 22.75 39.890625 18.8125 39.015625 
Q 14.890625 38.140625 10.796875 36.28125 
z
" id="DejaVuSans-53"/>
      </defs>
      <g transform="translate(126.040917 404.638438)scale(0.1 -0.1)">
       <use xlink:href="#DejaVuSans-50"/>
       <use x="63.623047" xlink:href="#DejaVuSans-53"/>
      </g>
     </g>
    </g>
    <g id="xtick_3">
     <g id="line2d_5">
      <path clip-path="url(#p95b527d678)" d="M 194.586834 390.04 
L 194.586834 25.44 
" style="fill:none;stroke:#000000;stroke-linecap:square;stroke-opacity:0.2;stroke-width:0.8;"/>
     </g>
     <g id="line2d_6">
      <g>
       <use style="stroke:#000000;stroke-width:0.8;" x="194.586834" xlink:href="#m16a7ee3c78" y="390.04"/>
      </g>
     </g>
     <g id="text_3">
      <!-- 50 -->
      <g transform="translate(188.224334 404.638438)scale(0.1 -0.1)">
       <use xlink:href="#DejaVuSans-53"/>
       <use x="63.623047" xlink:href="#DejaVuSans-48"/>
      </g>
     </g>
    </g>
    <g id="xtick_4">
     <g id="line2d_7">
      <path clip-path="url(#p95b527d678)" d="M 256.770251 390.04 
L 256.770251 25.44 
" style="fill:none;stroke:#000000;stroke-linecap:square;stroke-opacity:0.2;stroke-width:0.8;"/>
     </g>
     <g id="line2d_8">
      <g>
       <use style="stroke:#000000;stroke-width:0.8;" x="256.770251" xlink:href="#m16a7ee3c78" y="390.04"/>
      </g>
     </g>
     <g id="text_4">
      <!-- 75 -->
      <defs>
       <path d="M 8.203125 72.90625 
L 55.078125 72.90625 
L 55.078125 68.703125 
L 28.609375 0 
L 18.3125 0 
L 43.21875 64.59375 
L 8.203125 64.59375 
z
" id="DejaVuSans-55"/>
      </defs>
      <g transform="translate(250.407751 404.638438)scale(0.1 -0.1)">
       <use xlink:href="#DejaVuSans-55"/>
       <use x="63.623047" xlink:href="#DejaVuSans-53"/>
      </g>
     </g>
    </g>
    <g id="xtick_5">
     <g id="line2d_9">
      <path clip-path="url(#p95b527d678)" d="M 318.953668 390.04 
L 318.953668 25.44 
" style="fill:none;stroke:#000000;stroke-linecap:square;stroke-opacity:0.2;stroke-width:0.8;"/>
     </g>
     <g id="line2d_10">
      <g>
       <use style="stroke:#000000;stroke-width:0.8;" x="318.953668" xlink:href="#m16a7ee3c78" y="390.04"/>
      </g>
     </g>
     <g id="text_5">
      <!-- 100 -->
      <defs>
       <path d="M 12.40625 8.296875 
L 28.515625 8.296875 
L 28.515625 63.921875 
L 10.984375 60.40625 
L 10.984375 69.390625 
L 28.421875 72.90625 
L 38.28125 72.90625 
L 38.28125 8.296875 
L 54.390625 8.296875 
L 54.390625 0 
L 12.40625 0 
z
" id="DejaVuSans-49"/>
      </defs>
      <g transform="translate(309.409918 404.638438)scale(0.1 -0.1)">
       <use xlink:href="#DejaVuSans-49"/>
       <use x="63.623047" xlink:href="#DejaVuSans-48"/>
       <use x="127.246094" xlink:href="#DejaVuSans-48"/>
      </g>
     </g>
    </g>
    <g id="xtick_6">
     <g id="line2d_11">
      <path clip-path="url(#p95b527d678)" d="M 381.137085 390.04 
L 381.137085 25.44 
" style="fill:none;stroke:#000000;stroke-linecap:square;stroke-opacity:0.2;stroke-width:0.8;"/>
     </g>
     <g id="line2d_12">
      <g>
       <use style="stroke:#000000;stroke-width:0.8;" x="381.137085" xlink:href="#m16a7ee3c78" y="390.04"/>
      </g>
     </g>
     <g id="text_6">
      <!-- 125 -->
      <g transform="translate(371.593335 404.638438)scale(0.1 -0.1)">
       <use xlink:href="#DejaVuSans-49"/>
       <use x="63.623047" xlink:href="#DejaVuSans-50"/>
       <use x="127.246094" xlink:href="#DejaVuSans-53"/>
      </g>
     </g>
    </g>
    <g id="xtick_7">
     <g id="line2d_13">
      <path clip-path="url(#p95b527d678)" d="M 443.320503 390.04 
L 443.320503 25.44 
" style="fill:none;stroke:#000000;stroke-linecap:square;stroke-opacity:0.2;stroke-width:0.8;"/>
     </g>
     <g id="line2d_14">
      <g>
       <use style="stroke:#000000;stroke-width:0.8;" x="443.320503" xlink:href="#m16a7ee3c78" y="390.04"/>
      </g>
     </g>
     <g id="text_7">
      <!-- 150 -->
      <g transform="translate(433.776753 404.638438)scale(0.1 -0.1)">
       <use xlink:href="#DejaVuSans-49"/>
       <use x="63.623047" xlink:href="#DejaVuSans-53"/>
       <use x="127.246094" xlink:href="#DejaVuSans-48"/>
      </g>
     </g>
    </g>
    <g id="xtick_8">
     <g id="line2d_15">
      <path clip-path="url(#p95b527d678)" d="M 505.50392 390.04 
L 505.50392 25.44 
" style="fill:none;stroke:#000000;stroke-linecap:square;stroke-opacity:0.2;stroke-width:0.8;"/>
     </g>
     <g id="line2d_16">
      <g>
       <use style="stroke:#000000;stroke-width:0.8;" x="505.50392" xlink:href="#m16a7ee3c78" y="390.04"/>
      </g>
     </g>
     <g id="text_8">
      <!-- 175 -->
      <g transform="translate(495.96017 404.638438)scale(0.1 -0.1)">
       <use xlink:href="#DejaVuSans-49"/>
       <use x="63.623047" xlink:href="#DejaVuSans-55"/>
       <use x="127.246094" xlink:href="#DejaVuSans-53"/>
      </g>
     </g>
    </g>
    <g id="text_9">
     <!-- 27-mer frequency -->
     <defs>
      <path d="M 4.890625 31.390625 
L 31.203125 31.390625 
L 31.203125 23.390625 
L 4.890625 23.390625 
z
" id="DejaVuSans-45"/>
      <path d="M 52 44.1875 
Q 55.375 50.25 60.0625 53.125 
Q 64.75 56 71.09375 56 
Q 79.640625 56 84.28125 50.015625 
Q 88.921875 44.046875 88.921875 33.015625 
L 88.921875 0 
L 79.890625 0 
L 79.890625 32.71875 
Q 79.890625 40.578125 77.09375 44.375 
Q 74.3125 48.1875 68.609375 48.1875 
Q 61.625 48.1875 57.5625 43.546875 
Q 53.515625 38.921875 53.515625 30.90625 
L 53.515625 0 
L 44.484375 0 
L 44.484375 32.71875 
Q 44.484375 40.625 41.703125 44.40625 
Q 38.921875 48.1875 33.109375 48.1875 
Q 26.21875 48.1875 22.15625 43.53125 
Q 18.109375 38.875 18.109375 30.90625 
L 18.109375 0 
L 9.078125 0 
L 9.078125 54.6875 
L 18.109375 54.6875 
L 18.109375 46.1875 
Q 21.1875 51.21875 25.484375 53.609375 
Q 29.78125 56 35.6875 56 
Q 41.65625 56 45.828125 52.96875 
Q 50 49.953125 52 44.1875 
z
" id="DejaVuSans-109"/>
      <path d="M 56.203125 29.59375 
L 56.203125 25.203125 
L 14.890625 25.203125 
Q 15.484375 15.921875 20.484375 11.0625 
Q 25.484375 6.203125 34.421875 6.203125 
Q 39.59375 6.203125 44.453125 7.46875 
Q 49.3125 8.734375 54.109375 11.28125 
L 54.109375 2.78125 
Q 49.265625 0.734375 44.1875 -0.34375 
Q 39.109375 -1.421875 33.890625 -1.421875 
Q 20.796875 -1.421875 13.15625 6.1875 
Q 5.515625 13.8125 5.515625 26.8125 
Q 5.515625 40.234375 12.765625 48.109375 
Q 20.015625 56 32.328125 56 
Q 43.359375 56 49.78125 48.890625 
Q 56.203125 41.796875 56.203125 29.59375 
z
M 47.21875 32.234375 
Q 47.125 39.59375 43.09375 43.984375 
Q 39.0625 48.390625 32.421875 48.390625 
Q 24.90625 48.390625 20.390625 44.140625 
Q 15.875 39.890625 15.1875 32.171875 
z
" id="DejaVuSans-101"/>
      <path d="M 41.109375 46.296875 
Q 39.59375 47.171875 37.8125 47.578125 
Q 36.03125 48 33.890625 48 
Q 26.265625 48 22.1875 43.046875 
Q 18.109375 38.09375 18.109375 28.8125 
L 18.109375 0 
L 9.078125 0 
L 9.078125 54.6875 
L 18.109375 54.6875 
L 18.109375 46.1875 
Q 20.953125 51.171875 25.484375 53.578125 
Q 30.03125 56 36.53125 56 
Q 37.453125 56 38.578125 55.875 
Q 39.703125 55.765625 41.0625 55.515625 
z
" id="DejaVuSans-114"/>
      <path id="DejaVuSans-32"/>
      <path d="M 37.109375 75.984375 
L 37.109375 68.5 
L 28.515625 68.5 
Q 23.6875 68.5 21.796875 66.546875 
Q 19.921875 64.59375 19.921875 59.515625 
L 19.921875 54.6875 
L 34.71875 54.6875 
L 34.71875 47.703125 
L 19.921875 47.703125 
L 19.921875 0 
L 10.890625 0 
L 10.890625 47.703125 
L 2.296875 47.703125 
L 2.296875 54.6875 
L 10.890625 54.6875 
L 10.890625 58.5 
Q 10.890625 67.625 15.140625 71.796875 
Q 19.390625 75.984375 28.609375 75.984375 
z
" id="DejaVuSans-102"/>
      <path d="M 14.796875 27.296875 
Q 14.796875 17.390625 18.875 11.75 
Q 22.953125 6.109375 30.078125 6.109375 
Q 37.203125 6.109375 41.296875 11.75 
Q 45.40625 17.390625 45.40625 27.296875 
Q 45.40625 37.203125 41.296875 42.84375 
Q 37.203125 48.484375 30.078125 48.484375 
Q 22.953125 48.484375 18.875 42.84375 
Q 14.796875 37.203125 14.796875 27.296875 
z
M 45.40625 8.203125 
Q 42.578125 3.328125 38.25 0.953125 
Q 33.9375 -1.421875 27.875 -1.421875 
Q 17.96875 -1.421875 11.734375 6.484375 
Q 5.515625 14.40625 5.515625 27.296875 
Q 5.515625 40.1875 11.734375 48.09375 
Q 17.96875 56 27.875 56 
Q 33.9375 56 38.25 53.625 
Q 42.578125 51.265625 45.40625 46.390625 
L 45.40625 54.6875 
L 54.390625 54.6875 
L 54.390625 -20.796875 
L 45.40625 -20.796875 
z
" id="DejaVuSans-113"/>
      <path d="M 8.5 21.578125 
L 8.5 54.6875 
L 17.484375 54.6875 
L 17.484375 21.921875 
Q 17.484375 14.15625 20.5 10.265625 
Q 23.53125 6.390625 29.59375 6.390625 
Q 36.859375 6.390625 41.078125 11.03125 
Q 45.3125 15.671875 45.3125 23.6875 
L 45.3125 54.6875 
L 54.296875 54.6875 
L 54.296875 0 
L 45.3125 0 
L 45.3125 8.40625 
Q 42.046875 3.421875 37.71875 1 
Q 33.40625 -1.421875 27.6875 -1.421875 
Q 18.265625 -1.421875 13.375 4.4375 
Q 8.5 10.296875 8.5 21.578125 
z
M 31.109375 56 
z
" id="DejaVuSans-117"/>
      <path d="M 54.890625 33.015625 
L 54.890625 0 
L 45.90625 0 
L 45.90625 32.71875 
Q 45.90625 40.484375 42.875 44.328125 
Q 39.84375 48.1875 33.796875 48.1875 
Q 26.515625 48.1875 22.3125 43.546875 
Q 18.109375 38.921875 18.109375 30.90625 
L 18.109375 0 
L 9.078125 0 
L 9.078125 54.6875 
L 18.109375 54.6875 
L 18.109375 46.1875 
Q 21.34375 51.125 25.703125 53.5625 
Q 30.078125 56 35.796875 56 
Q 45.21875 56 50.046875 50.171875 
Q 54.890625 44.34375 54.890625 33.015625 
z
" id="DejaVuSans-110"/>
      <path d="M 48.78125 52.59375 
L 48.78125 44.1875 
Q 44.96875 46.296875 41.140625 47.34375 
Q 37.3125 48.390625 33.40625 48.390625 
Q 24.65625 48.390625 19.8125 42.84375 
Q 14.984375 37.3125 14.984375 27.296875 
Q 14.984375 17.28125 19.8125 11.734375 
Q 24.65625 6.203125 33.40625 6.203125 
Q 37.3125 6.203125 41.140625 7.25 
Q 44.96875 8.296875 48.78125 10.40625 
L 48.78125 2.09375 
Q 45.015625 0.34375 40.984375 -0.53125 
Q 36.96875 -1.421875 32.421875 -1.421875 
Q 20.0625 -1.421875 12.78125 6.34375 
Q 5.515625 14.109375 5.515625 27.296875 
Q 5.515625 40.671875 12.859375 48.328125 
Q 20.21875 56 33.015625 56 
Q 37.15625 56 41.109375 55.140625 
Q 45.0625 54.296875 48.78125 52.59375 
z
" id="DejaVuSans-99"/>
      <path d="M 32.171875 -5.078125 
Q 28.375 -14.84375 24.75 -17.8125 
Q 21.140625 -20.796875 15.09375 -20.796875 
L 7.90625 -20.796875 
L 7.90625 -13.28125 
L 13.1875 -13.28125 
Q 16.890625 -13.28125 18.9375 -11.515625 
Q 21 -9.765625 23.484375 -3.21875 
L 25.09375 0.875 
L 2.984375 54.6875 
L 12.5 54.6875 
L 29.59375 11.921875 
L 46.6875 54.6875 
L 56.203125 54.6875 
z
" id="DejaVuSans-121"/>
     </defs>
     <g transform="translate(272.875625 418.316562)scale(0.1 -0.1)">
      <use xlink:href="#DejaVuSans-50"/>
      <use x="63.623047" xlink:href="#DejaVuSans-55"/>
      <use x="127.246094" xlink:href="#DejaVuSans-45"/>
      <use x="163.330078" xlink:href="#DejaVuSans-109"/>
      <use x="260.742188" xlink:href="#DejaVuSans-101"/>
      <use x="322.265625" xlink:href="#DejaVuSans-114"/>
      <use x="363.378906" xlink:href="#DejaVuSans-32"/>
      <use x="395.166016" xlink:href="#DejaVuSans-102"/>
      <use x="430.371094" xlink:href="#DejaVuSans-114"/>
      <use x="469.234375" xlink:href="#DejaVuSans-101"/>
      <use x="530.757812" xlink:href="#DejaVuSans-113"/>
      <use x="594.234375" xlink:href="#DejaVuSans-117"/>
      <use x="657.613281" xlink:href="#DejaVuSans-101"/>
      <use x="719.136719" xlink:href="#DejaVuSans-110"/>
      <use x="782.515625" xlink:href="#DejaVuSans-99"/>
      <use x="837.496094" xlink:href="#DejaVuSans-121"/>
     </g>
    </g>
   </g>
   <g id="matplotlib.axis_2">
    <g id="ytick_1">
     <g id="line2d_17">
      <path clip-path="url(#p95b527d678)" d="M 70.22 390.04 
L 565.2 390.04 
" style="fill:none;stroke:#000000;stroke-linecap:square;stroke-opacity:0.2;stroke-width:0.8;"/>
     </g>
     <g id="line2d_18">
      <defs>
       <path d="M 0 0 
L -3.5 0 
" id="m644894ce9c" style="stroke:#000000;stroke-width:0.8;"/>
      </defs>
      <g>
       <use style="stroke:#000000;stroke-width:0.8;" x="70.22" xlink:href="#m644894ce9c" y="390.04"/>
      </g>
     </g>
     <g id="text_10">
      <!-- 0 -->
      <g transform="translate(56.8575 393.839219)scale(0.1 -0.1)">
       <use xlink:href="#DejaVuSans-48"/>
      </g>
     </g>
    </g>
    <g id="ytick_2">
     <g id="line2d_19">
      <path clip-path="url(#p95b527d678)" d="M 70.22 348.416715 
L 565.2 348.416715 
" style="fill:none;stroke:#000000;stroke-linecap:square;stroke-opacity:0.2;stroke-width:0.8;"/>
     </g>
     <g id="line2d_20">
      <g>
       <use style="stroke:#000000;stroke-width:0.8;" x="70.22" xlink:href="#m644894ce9c" y="348.416715"/>
      </g>
     </g>
     <g id="text_11">
      <!-- 20000 -->
      <g transform="translate(31.4075 352.215933)scale(0.1 -0.1)">
       <use xlink:href="#DejaVuSans-50"/>
       <use x="63.623047" xlink:href="#DejaVuSans-48"/>
       <use x="127.246094" xlink:href="#DejaVuSans-48"/>
       <use x="190.869141" xlink:href="#DejaVuSans-48"/>
       <use x="254.492188" xlink:href="#DejaVuSans-48"/>
      </g>
     </g>
    </g>
    <g id="ytick_3">
     <g id="line2d_21">
      <path clip-path="url(#p95b527d678)" d="M 70.22 306.793429 
L 565.2 306.793429 
" style="fill:none;stroke:#000000;stroke-linecap:square;stroke-opacity:0.2;stroke-width:0.8;"/>
     </g>
     <g id="line2d_22">
      <g>
       <use style="stroke:#000000;stroke-width:0.8;" x="70.22" xlink:href="#m644894ce9c" y="306.793429"/>
      </g>
     </g>
     <g id="text_12">
      <!-- 40000 -->
      <defs>
       <path d="M 37.796875 64.3125 
L 12.890625 25.390625 
L 37.796875 25.390625 
z
M 35.203125 72.90625 
L 47.609375 72.90625 
L 47.609375 25.390625 
L 58.015625 25.390625 
L 58.015625 17.1875 
L 47.609375 17.1875 
L 47.609375 0 
L 37.796875 0 
L 37.796875 17.1875 
L 4.890625 17.1875 
L 4.890625 26.703125 
z
" id="DejaVuSans-52"/>
      </defs>
      <g transform="translate(31.4075 310.592648)scale(0.1 -0.1)">
       <use xlink:href="#DejaVuSans-52"/>
       <use x="63.623047" xlink:href="#DejaVuSans-48"/>
       <use x="127.246094" xlink:href="#DejaVuSans-48"/>
       <use x="190.869141" xlink:href="#DejaVuSans-48"/>
       <use x="254.492188" xlink:href="#DejaVuSans-48"/>
      </g>
     </g>
    </g>
    <g id="ytick_4">
     <g id="line2d_23">
      <path clip-path="url(#p95b527d678)" d="M 70.22 265.170144 
L 565.2 265.170144 
" style="fill:none;stroke:#000000;stroke-linecap:square;stroke-opacity:0.2;stroke-width:0.8;"/>
     </g>
     <g id="line2d_24">
      <g>
       <use style="stroke:#000000;stroke-width:0.8;" x="70.22" xlink:href="#m644894ce9c" y="265.170144"/>
      </g>
     </g>
     <g id="text_13">
      <!-- 60000 -->
      <defs>
       <path d="M 33.015625 40.375 
Q 26.375 40.375 22.484375 35.828125 
Q 18.609375 31.296875 18.609375 23.390625 
Q 18.609375 15.53125 22.484375 10.953125 
Q 26.375 6.390625 33.015625 6.390625 
Q 39.65625 6.390625 43.53125 10.953125 
Q 47.40625 15.53125 47.40625 23.390625 
Q 47.40625 31.296875 43.53125 35.828125 
Q 39.65625 40.375 33.015625 40.375 
z
M 52.59375 71.296875 
L 52.59375 62.3125 
Q 48.875 64.0625 45.09375 64.984375 
Q 41.3125 65.921875 37.59375 65.921875 
Q 27.828125 65.921875 22.671875 59.328125 
Q 17.53125 52.734375 16.796875 39.40625 
Q 19.671875 43.65625 24.015625 45.921875 
Q 28.375 48.1875 33.59375 48.1875 
Q 44.578125 48.1875 50.953125 41.515625 
Q 57.328125 34.859375 57.328125 23.390625 
Q 57.328125 12.15625 50.6875 5.359375 
Q 44.046875 -1.421875 33.015625 -1.421875 
Q 20.359375 -1.421875 13.671875 8.265625 
Q 6.984375 17.96875 6.984375 36.375 
Q 6.984375 53.65625 15.1875 63.9375 
Q 23.390625 74.21875 37.203125 74.21875 
Q 40.921875 74.21875 44.703125 73.484375 
Q 48.484375 72.75 52.59375 71.296875 
z
" id="DejaVuSans-54"/>
      </defs>
      <g transform="translate(31.4075 268.969363)scale(0.1 -0.1)">
       <use xlink:href="#DejaVuSans-54"/>
       <use x="63.623047" xlink:href="#DejaVuSans-48"/>
       <use x="127.246094" xlink:href="#DejaVuSans-48"/>
       <use x="190.869141" xlink:href="#DejaVuSans-48"/>
       <use x="254.492188" xlink:href="#DejaVuSans-48"/>
      </g>
     </g>
    </g>
    <g id="ytick_5">
     <g id="line2d_25">
      <path clip-path="url(#p95b527d678)" d="M 70.22 223.546859 
L 565.2 223.546859 
" style="fill:none;stroke:#000000;stroke-linecap:square;stroke-opacity:0.2;stroke-width:0.8;"/>
     </g>
     <g id="line2d_26">
      <g>
       <use style="stroke:#000000;stroke-width:0.8;" x="70.22" xlink:href="#m644894ce9c" y="223.546859"/>
      </g>
     </g>
     <g id="text_14">
      <!-- 80000 -->
      <defs>
       <path d="M 31.78125 34.625 
Q 24.75 34.625 20.71875 30.859375 
Q 16.703125 27.09375 16.703125 20.515625 
Q 16.703125 13.921875 20.71875 10.15625 
Q 24.75 6.390625 31.78125 6.390625 
Q 38.8125 6.390625 42.859375 10.171875 
Q 46.921875 13.96875 46.921875 20.515625 
Q 46.921875 27.09375 42.890625 30.859375 
Q 38.875 34.625 31.78125 34.625 
z
M 21.921875 38.8125 
Q 15.578125 40.375 12.03125 44.71875 
Q 8.5 49.078125 8.5 55.328125 
Q 8.5 64.0625 14.71875 69.140625 
Q 20.953125 74.21875 31.78125 74.21875 
Q 42.671875 74.21875 48.875 69.140625 
Q 55.078125 64.0625 55.078125 55.328125 
Q 55.078125 49.078125 51.53125 44.71875 
Q 48 40.375 41.703125 38.8125 
Q 48.828125 37.15625 52.796875 32.3125 
Q 56.78125 27.484375 56.78125 20.515625 
Q 56.78125 9.90625 50.3125 4.234375 
Q 43.84375 -1.421875 31.78125 -1.421875 
Q 19.734375 -1.421875 13.25 4.234375 
Q 6.78125 9.90625 6.78125 20.515625 
Q 6.78125 27.484375 10.78125 32.3125 
Q 14.796875 37.15625 21.921875 38.8125 
z
M 18.3125 54.390625 
Q 18.3125 48.734375 21.84375 45.5625 
Q 25.390625 42.390625 31.78125 42.390625 
Q 38.140625 42.390625 41.71875 45.5625 
Q 45.3125 48.734375 45.3125 54.390625 
Q 45.3125 60.0625 41.71875 63.234375 
Q 38.140625 66.40625 31.78125 66.40625 
Q 25.390625 66.40625 21.84375 63.234375 
Q 18.3125 60.0625 18.3125 54.390625 
z
" id="DejaVuSans-56"/>
      </defs>
      <g transform="translate(31.4075 227.346078)scale(0.1 -0.1)">
       <use xlink:href="#DejaVuSans-56"/>
       <use x="63.623047" xlink:href="#DejaVuSans-48"/>
       <use x="127.246094" xlink:href="#DejaVuSans-48"/>
       <use x="190.869141" xlink:href="#DejaVuSans-48"/>
       <use x="254.492188" xlink:href="#DejaVuSans-48"/>
      </g>
     </g>
    </g>
    <g id="ytick_6">
     <g id="line2d_27">
      <path clip-path="url(#p95b527d678)" d="M 70.22 181.923574 
L 565.2 181.923574 
" style="fill:none;stroke:#000000;stroke-linecap:square;stroke-opacity:0.2;stroke-width:0.8;"/>
     </g>
     <g id="line2d_28">
      <g>
       <use style="stroke:#000000;stroke-width:0.8;" x="70.22" xlink:href="#m644894ce9c" y="181.923574"/>
      </g>
     </g>
     <g id="text_15">
      <!-- 100000 -->
      <g transform="translate(25.045 185.722792)scale(0.1 -0.1)">
       <use xlink:href="#DejaVuSans-49"/>
       <use x="63.623047" xlink:href="#DejaVuSans-48"/>
       <use x="127.246094" xlink:href="#DejaVuSans-48"/>
       <use x="190.869141" xlink:href="#DejaVuSans-48"/>
       <use x="254.492188" xlink:href="#DejaVuSans-48"/>
       <use x="318.115234" xlink:href="#DejaVuSans-48"/>
      </g>
     </g>
    </g>
    <g id="ytick_7">
     <g id="line2d_29">
      <path clip-path="url(#p95b527d678)" d="M 70.22 140.300288 
L 565.2 140.300288 
" style="fill:none;stroke:#000000;stroke-linecap:square;stroke-opacity:0.2;stroke-width:0.8;"/>
     </g>
     <g id="line2d_30">
      <g>
       <use style="stroke:#000000;stroke-width:0.8;" x="70.22" xlink:href="#m644894ce9c" y="140.300288"/>
      </g>
     </g>
     <g id="text_16">
      <!-- 120000 -->
      <g transform="translate(25.045 144.099507)scale(0.1 -0.1)">
       <use xlink:href="#DejaVuSans-49"/>
       <use x="63.623047" xlink:href="#DejaVuSans-50"/>
       <use x="127.246094" xlink:href="#DejaVuSans-48"/>
       <use x="190.869141" xlink:href="#DejaVuSans-48"/>
       <use x="254.492188" xlink:href="#DejaVuSans-48"/>
       <use x="318.115234" xlink:href="#DejaVuSans-48"/>
      </g>
     </g>
    </g>
    <g id="ytick_8">
     <g id="line2d_31">
      <path clip-path="url(#p95b527d678)" d="M 70.22 98.677003 
L 565.2 98.677003 
" style="fill:none;stroke:#000000;stroke-linecap:square;stroke-opacity:0.2;stroke-width:0.8;"/>
     </g>
     <g id="line2d_32">
      <g>
       <use style="stroke:#000000;stroke-width:0.8;" x="70.22" xlink:href="#m644894ce9c" y="98.677003"/>
      </g>
     </g>
     <g id="text_17">
      <!-- 140000 -->
      <g transform="translate(25.045 102.476222)scale(0.1 -0.1)">
       <use xlink:href="#DejaVuSans-49"/>
       <use x="63.623047" xlink:href="#DejaVuSans-52"/>
       <use x="127.246094" xlink:href="#DejaVuSans-48"/>
       <use x="190.869141" xlink:href="#DejaVuSans-48"/>
       <use x="254.492188" xlink:href="#DejaVuSans-48"/>
       <use x="318.115234" xlink:href="#DejaVuSans-48"/>
      </g>
     </g>
    </g>
    <g id="ytick_9">
     <g id="line2d_33">
      <path clip-path="url(#p95b527d678)" d="M 70.22 57.053718 
L 565.2 57.053718 
" style="fill:none;stroke:#000000;stroke-linecap:square;stroke-opacity:0.2;stroke-width:0.8;"/>
     </g>
     <g id="line2d_34">
      <g>
       <use style="stroke:#000000;stroke-width:0.8;" x="70.22" xlink:href="#m644894ce9c" y="57.053718"/>
      </g>
     </g>
     <g id="text_18">
      <!-- 160000 -->
      <g transform="translate(25.045 60.852936)scale(0.1 -0.1)">
       <use xlink:href="#DejaVuSans-49"/>
       <use x="63.623047" xlink:href="#DejaVuSans-54"/>
       <use x="127.246094" xlink:href="#DejaVuSans-48"/>
       <use x="190.869141" xlink:href="#DejaVuSans-48"/>
       <use x="254.492188" xlink:href="#DejaVuSans-48"/>
       <use x="318.115234" xlink:href="#DejaVuSans-48"/>
      </g>
     </g>
    </g>
    <g id="text_19">
     <!-- # distinct 27-mers -->
     <defs>
      <path d="M 51.125 44 
L 36.921875 44 
L 32.8125 27.6875 
L 47.125 27.6875 
z
M 43.796875 71.78125 
L 38.71875 51.515625 
L 52.984375 51.515625 
L 58.109375 71.78125 
L 65.921875 71.78125 
L 60.890625 51.515625 
L 76.125 51.515625 
L 76.125 44 
L 58.984375 44 
L 54.984375 27.6875 
L 70.515625 27.6875 
L 70.515625 20.21875 
L 53.078125 20.21875 
L 48 0 
L 40.1875 0 
L 45.21875 20.21875 
L 30.90625 20.21875 
L 25.875 0 
L 18.015625 0 
L 23.09375 20.21875 
L 7.71875 20.21875 
L 7.71875 27.6875 
L 24.90625 27.6875 
L 29 44 
L 13.28125 44 
L 13.28125 51.515625 
L 30.90625 51.515625 
L 35.890625 71.78125 
z
" id="DejaVuSans-35"/>
      <path d="M 45.40625 46.390625 
L 45.40625 75.984375 
L 54.390625 75.984375 
L 54.390625 0 
L 45.40625 0 
L 45.40625 8.203125 
Q 42.578125 3.328125 38.25 0.953125 
Q 33.9375 -1.421875 27.875 -1.421875 
Q 17.96875 -1.421875 11.734375 6.484375 
Q 5.515625 14.40625 5.515625 27.296875 
Q 5.515625 40.1875 11.734375 48.09375 
Q 17.96875 56 27.875 56 
Q 33.9375 56 38.25 53.625 
Q 42.578125 51.265625 45.40625 46.390625 
z
M 14.796875 27.296875 
Q 14.796875 17.390625 18.875 11.75 
Q 22.953125 6.109375 30.078125 6.109375 
Q 37.203125 6.109375 41.296875 11.75 
Q 45.40625 17.390625 45.40625 27.296875 
Q 45.40625 37.203125 41.296875 42.84375 
Q 37.203125 48.484375 30.078125 48.484375 
Q 22.953125 48.484375 18.875 42.84375 
Q 14.796875 37.203125 14.796875 27.296875 
z
" id="DejaVuSans-100"/>
      <path d="M 9.421875 54.6875 
L 18.40625 54.6875 
L 18.40625 0 
L 9.421875 0 
z
M 9.421875 75.984375 
L 18.40625 75.984375 
L 18.40625 64.59375 
L 9.421875 64.59375 
z
" id="DejaVuSans-105"/>
      <path d="M 44.28125 53.078125 
L 44.28125 44.578125 
Q 40.484375 46.53125 36.375 47.5 
Q 32.28125 48.484375 27.875 48.484375 
Q 21.1875 48.484375 17.84375 46.4375 
Q 14.5 44.390625 14.5 40.28125 
Q 14.5 37.15625 16.890625 35.375 
Q 19.28125 33.59375 26.515625 31.984375 
L 29.59375 31.296875 
Q 39.15625 29.25 43.1875 25.515625 
Q 47.21875 21.78125 47.21875 15.09375 
Q 47.21875 7.46875 41.1875 3.015625 
Q 35.15625 -1.421875 24.609375 -1.421875 
Q 20.21875 -1.421875 15.453125 -0.5625 
Q 10.6875 0.296875 5.421875 2 
L 5.421875 11.28125 
Q 10.40625 8.6875 15.234375 7.390625 
Q 20.0625 6.109375 24.8125 6.109375 
Q 31.15625 6.109375 34.5625 8.28125 
Q 37.984375 10.453125 37.984375 14.40625 
Q 37.984375 18.0625 35.515625 20.015625 
Q 33.0625 21.96875 24.703125 23.78125 
L 21.578125 24.515625 
Q 13.234375 26.265625 9.515625 29.90625 
Q 5.8125 33.546875 5.8125 39.890625 
Q 5.8125 47.609375 11.28125 51.796875 
Q 16.75 56 26.8125 56 
Q 31.78125 56 36.171875 55.265625 
Q 40.578125 54.546875 44.28125 53.078125 
z
" id="DejaVuSans-115"/>
      <path d="M 18.3125 70.21875 
L 18.3125 54.6875 
L 36.8125 54.6875 
L 36.8125 47.703125 
L 18.3125 47.703125 
L 18.3125 18.015625 
Q 18.3125 11.328125 20.140625 9.421875 
Q 21.96875 7.515625 27.59375 7.515625 
L 36.8125 7.515625 
L 36.8125 0 
L 27.59375 0 
Q 17.1875 0 13.234375 3.875 
Q 9.28125 7.765625 9.28125 18.015625 
L 9.28125 47.703125 
L 2.6875 47.703125 
L 2.6875 54.6875 
L 9.28125 54.6875 
L 9.28125 70.21875 
z
" id="DejaVuSans-116"/>
     </defs>
     <g transform="translate(18.965313 254.276719)rotate(-90)scale(0.1 -0.1)">
      <use xlink:href="#DejaVuSans-35"/>
      <use x="83.789062" xlink:href="#DejaVuSans-32"/>
      <use x="115.576172" xlink:href="#DejaVuSans-100"/>
      <use x="179.052734" xlink:href="#DejaVuSans-105"/>
      <use x="206.835938" xlink:href="#DejaVuSans-115"/>
      <use x="258.935547" xlink:href="#DejaVuSans-116"/>
      <use x="298.144531" xlink:href="#DejaVuSans-105"/>
      <use x="325.927734" xlink:href="#DejaVuSans-110"/>
      <use x="389.306641" xlink:href="#DejaVuSans-99"/>
      <use x="444.287109" xlink:href="#DejaVuSans-116"/>
      <use x="483.496094" xlink:href="#DejaVuSans-32"/>
      <use x="515.283203" xlink:href="#DejaVuSans-50"/>
      <use x="578.90625" xlink:href="#DejaVuSans-55"/>
      <use x="642.529297" xlink:href="#DejaVuSans-45"/>
      <use x="678.613281" xlink:href="#DejaVuSans-109"/>
      <use x="776.025391" xlink:href="#DejaVuSans-101"/>
      <use x="837.548828" xlink:href="#DejaVuSans-114"/>
      <use x="878.662109" xlink:href="#DejaVuSans-115"/>
     </g>
    </g>
   </g>
   <g id="line2d_35">
    <path clip-path="url(#p95b527d678)" d="M 79.533019 -1 
L 80.169347 89.900733 
L 82.656683 220.131668 
L 85.14402 268.783045 
L 87.631357 305.182608 
L 90.118693 330.164904 
L 92.60603 346.160733 
L 95.093367 359.719518 
L 100.06804 372.776742 
L 102.555377 377.124295 
L 105.042714 380.483294 
L 107.53005 382.566539 
L 112.504724 385.009826 
L 114.99206 385.80275 
L 117.479397 386.335528 
L 122.45407 386.795465 
L 124.941407 386.826682 
L 127.428744 386.529076 
L 129.91608 386.587348 
L 132.403417 386.075382 
L 134.890754 385.952593 
L 137.37809 385.582146 
L 142.352764 385.170076 
L 152.302111 383.12221 
L 154.789447 382.271014 
L 159.764121 380.110765 
L 162.251457 378.383399 
L 164.738794 377.66956 
L 167.226131 375.617532 
L 169.713467 372.695577 
L 172.200804 370.554059 
L 174.688141 367.390689 
L 177.175477 363.732003 
L 179.662814 358.760101 
L 182.150151 352.907867 
L 184.637487 346.187788 
L 187.124824 338.997365 
L 189.612161 332.728898 
L 192.099497 322.012984 
L 194.586834 312.008827 
L 197.074171 299.267939 
L 199.561508 285.800725 
L 202.048844 271.134761 
L 204.536181 254.916248 
L 207.023518 236.23988 
L 209.510854 216.096291 
L 211.998191 199.794531 
L 214.485528 179.727945 
L 216.972864 162.010994 
L 219.460201 146.833063 
L 221.947538 130.067204 
L 224.434874 112.360658 
L 226.922211 98.31488 
L 229.409548 87.744647 
L 231.896884 76.373166 
L 234.384221 68.296167 
L 236.871558 64.539666 
L 239.358894 60.065162 
L 241.846231 58.585455 
L 244.333568 59.02458 
L 246.820905 63.501165 
L 249.308241 69.915313 
L 254.282915 89.549016 
L 256.770251 102.283661 
L 259.257588 116.941301 
L 264.232261 148.262823 
L 266.719598 164.676965 
L 269.206935 180.085905 
L 271.694271 198.156655 
L 274.181608 213.430319 
L 276.668945 229.476096 
L 279.156281 246.629052 
L 281.643618 260.939137 
L 284.130955 273.788245 
L 286.618291 287.938081 
L 289.105628 299.600926 
L 294.080302 319.87979 
L 299.054975 337.777803 
L 301.542312 345.186748 
L 304.029648 351.896421 
L 306.516985 357.707032 
L 309.004322 362.587362 
L 311.491658 367.128463 
L 313.978995 370.583195 
L 318.953668 376.522838 
L 321.441005 378.730953 
L 323.928342 380.312638 
L 326.415678 382.131576 
L 331.390352 384.341772 
L 333.877688 385.066017 
L 336.365025 385.973405 
L 341.339698 387.086828 
L 343.827035 387.523872 
L 358.751055 387.994216 
L 376.162412 387.598794 
L 378.649749 387.265808 
L 381.137085 387.39484 
L 383.624422 387.190886 
L 386.111759 386.799627 
L 388.599095 387.088909 
L 396.061106 386.699731 
L 398.548442 386.789221 
L 401.035779 386.741355 
L 403.523116 386.551969 
L 406.010452 386.830845 
L 410.985126 386.753842 
L 413.472462 386.583186 
L 415.959799 386.772572 
L 418.447136 386.691407 
L 428.396482 387.10764 
L 430.883819 387.070179 
L 433.371156 387.415652 
L 443.320503 387.48433 
L 445.807839 387.704934 
L 448.295176 387.727827 
L 453.269849 388.033758 
L 458.244523 388.029595 
L 465.706533 388.210657 
L 473.168543 388.429179 
L 498.04191 389.103476 
L 500.529246 389.007743 
L 503.016583 389.143018 
L 512.96593 389.086827 
L 515.453266 389.211697 
L 517.940603 389.161749 
L 527.88995 389.371946 
L 532.864623 389.321998 
L 555.250653 389.21794 
L 557.73799 389.324079 
L 562.712663 389.195047 
L 567.687337 389.363622 
L 567.687337 389.363622 
" style="fill:none;stroke:#cc0000;stroke-linecap:square;stroke-width:1.5;"/>
    <defs>
     <path d="M 0 1.5 
C 0.397805 1.5 0.77937 1.341951 1.06066 1.06066 
C 1.341951 0.77937 1.5 0.397805 1.5 0 
C 1.5 -0.397805 1.341951 -0.77937 1.06066 -1.06066 
C 0.77937 -1.341951 0.397805 -1.5 0 -1.5 
C -0.397805 -1.5 -0.77937 -1.341951 -1.06066 -1.06066 
C -1.341951 -0.77937 -1.5 -0.397805 -1.5 0 
C -1.5 0.397805 -1.341951 0.77937 -1.06066 1.06066 
C -0.77937 1.341951 -0.397805 1.5 0 1.5 
z
" id="m3c2b1ddc6b" style="stroke:#cc0000;"/>
    </defs>
    <g clip-path="url(#p95b527d678)">
     <use style="fill:#cc0000;stroke:#cc0000;" x="79.533019" xlink:href="#m3c2b1ddc6b" y="-1"/>
     <use style="fill:#cc0000;stroke:#cc0000;" x="80.169347" xlink:href="#m3c2b1ddc6b" y="89.900733"/>
     <use style="fill:#cc0000;stroke:#cc0000;" x="82.656683" xlink:href="#m3c2b1ddc6b" y="220.131668"/>
     <use style="fill:#cc0000;stroke:#cc0000;" x="85.14402" xlink:href="#m3c2b1ddc6b" y="268.783045"/>
     <use style="fill:#cc0000;stroke:#cc0000;" x="87.631357" xlink:href="#m3c2b1ddc6b" y="305.182608"/>
     <use style="fill:#cc0000;stroke:#cc0000;" x="90.118693" xlink:href="#m3c2b1ddc6b" y="330.164904"/>
     <use style="fill:#cc0000;stroke:#cc0000;" x="92.60603" xlink:href="#m3c2b1ddc6b" y="346.160733"/>
     <use style="fill:#cc0000;stroke:#cc0000;" x="95.093367" xlink:href="#m3c2b1ddc6b" y="359.719518"/>
     <use style="fill:#cc0000;stroke:#cc0000;" x="97.580704" xlink:href="#m3c2b1ddc6b" y="366.129504"/>
     <use style="fill:#cc0000;stroke:#cc0000;" x="100.06804" xlink:href="#m3c2b1ddc6b" y="372.776742"/>
     <use style="fill:#cc0000;stroke:#cc0000;" x="102.555377" xlink:href="#m3c2b1ddc6b" y="377.124295"/>
     <use style="fill:#cc0000;stroke:#cc0000;" x="105.042714" xlink:href="#m3c2b1ddc6b" y="380.483294"/>
     <use style="fill:#cc0000;stroke:#cc0000;" x="107.53005" xlink:href="#m3c2b1ddc6b" y="382.566539"/>
     <use style="fill:#cc0000;stroke:#cc0000;" x="110.017387" xlink:href="#m3c2b1ddc6b" y="383.740316"/>
     <use style="fill:#cc0000;stroke:#cc0000;" x="112.504724" xlink:href="#m3c2b1ddc6b" y="385.009826"/>
     <use style="fill:#cc0000;stroke:#cc0000;" x="114.99206" xlink:href="#m3c2b1ddc6b" y="385.80275"/>
     <use style="fill:#cc0000;stroke:#cc0000;" x="117.479397" xlink:href="#m3c2b1ddc6b" y="386.335528"/>
     <use style="fill:#cc0000;stroke:#cc0000;" x="119.966734" xlink:href="#m3c2b1ddc6b" y="386.593592"/>
     <use style="fill:#cc0000;stroke:#cc0000;" x="122.45407" xlink:href="#m3c2b1ddc6b" y="386.795465"/>
     <use style="fill:#cc0000;stroke:#cc0000;" x="124.941407" xlink:href="#m3c2b1ddc6b" y="386.826682"/>
     <use style="fill:#cc0000;stroke:#cc0000;" x="127.428744" xlink:href="#m3c2b1ddc6b" y="386.529076"/>
     <use style="fill:#cc0000;stroke:#cc0000;" x="129.91608" xlink:href="#m3c2b1ddc6b" y="386.587348"/>
     <use style="fill:#cc0000;stroke:#cc0000;" x="132.403417" xlink:href="#m3c2b1ddc6b" y="386.075382"/>
     <use style="fill:#cc0000;stroke:#cc0000;" x="134.890754" xlink:href="#m3c2b1ddc6b" y="385.952593"/>
     <use style="fill:#cc0000;stroke:#cc0000;" x="137.37809" xlink:href="#m3c2b1ddc6b" y="385.582146"/>
     <use style="fill:#cc0000;stroke:#cc0000;" x="139.865427" xlink:href="#m3c2b1ddc6b" y="385.334488"/>
     <use style="fill:#cc0000;stroke:#cc0000;" x="142.352764" xlink:href="#m3c2b1ddc6b" y="385.170076"/>
     <use style="fill:#cc0000;stroke:#cc0000;" x="144.840101" xlink:href="#m3c2b1ddc6b" y="384.666434"/>
     <use style="fill:#cc0000;stroke:#cc0000;" x="147.327437" xlink:href="#m3c2b1ddc6b" y="384.252282"/>
     <use style="fill:#cc0000;stroke:#cc0000;" x="149.814774" xlink:href="#m3c2b1ddc6b" y="383.588391"/>
     <use style="fill:#cc0000;stroke:#cc0000;" x="152.302111" xlink:href="#m3c2b1ddc6b" y="383.12221"/>
     <use style="fill:#cc0000;stroke:#cc0000;" x="154.789447" xlink:href="#m3c2b1ddc6b" y="382.271014"/>
     <use style="fill:#cc0000;stroke:#cc0000;" x="157.276784" xlink:href="#m3c2b1ddc6b" y="381.161753"/>
     <use style="fill:#cc0000;stroke:#cc0000;" x="159.764121" xlink:href="#m3c2b1ddc6b" y="380.110765"/>
     <use style="fill:#cc0000;stroke:#cc0000;" x="162.251457" xlink:href="#m3c2b1ddc6b" y="378.383399"/>
     <use style="fill:#cc0000;stroke:#cc0000;" x="164.738794" xlink:href="#m3c2b1ddc6b" y="377.66956"/>
     <use style="fill:#cc0000;stroke:#cc0000;" x="167.226131" xlink:href="#m3c2b1ddc6b" y="375.617532"/>
     <use style="fill:#cc0000;stroke:#cc0000;" x="169.713467" xlink:href="#m3c2b1ddc6b" y="372.695577"/>
     <use style="fill:#cc0000;stroke:#cc0000;" x="172.200804" xlink:href="#m3c2b1ddc6b" y="370.554059"/>
     <use style="fill:#cc0000;stroke:#cc0000;" x="174.688141" xlink:href="#m3c2b1ddc6b" y="367.390689"/>
     <use style="fill:#cc0000;stroke:#cc0000;" x="177.175477" xlink:href="#m3c2b1ddc6b" y="363.732003"/>
     <use style="fill:#cc0000;stroke:#cc0000;" x="179.662814" xlink:href="#m3c2b1ddc6b" y="358.760101"/>
     <use style="fill:#cc0000;stroke:#cc0000;" x="182.150151" xlink:href="#m3c2b1ddc6b" y="352.907867"/>
     <use style="fill:#cc0000;stroke:#cc0000;" x="184.637487" xlink:href="#m3c2b1ddc6b" y="346.187788"/>
     <use style="fill:#cc0000;stroke:#cc0000;" x="187.124824" xlink:href="#m3c2b1ddc6b" y="338.997365"/>
     <use style="fill:#cc0000;stroke:#cc0000;" x="189.612161" xlink:href="#m3c2b1ddc6b" y="332.728898"/>
     <use style="fill:#cc0000;stroke:#cc0000;" x="192.099497" xlink:href="#m3c2b1ddc6b" y="322.012984"/>
     <use style="fill:#cc0000;stroke:#cc0000;" x="194.586834" xlink:href="#m3c2b1ddc6b" y="312.008827"/>
     <use style="fill:#cc0000;stroke:#cc0000;" x="197.074171" xlink:href="#m3c2b1ddc6b" y="299.267939"/>
     <use style="fill:#cc0000;stroke:#cc0000;" x="199.561508" xlink:href="#m3c2b1ddc6b" y="285.800725"/>
     <use style="fill:#cc0000;stroke:#cc0000;" x="202.048844" xlink:href="#m3c2b1ddc6b" y="271.134761"/>
     <use style="fill:#cc0000;stroke:#cc0000;" x="204.536181" xlink:href="#m3c2b1ddc6b" y="254.916248"/>
     <use style="fill:#cc0000;stroke:#cc0000;" x="207.023518" xlink:href="#m3c2b1ddc6b" y="236.23988"/>
     <use style="fill:#cc0000;stroke:#cc0000;" x="209.510854" xlink:href="#m3c2b1ddc6b" y="216.096291"/>
     <use style="fill:#cc0000;stroke:#cc0000;" x="211.998191" xlink:href="#m3c2b1ddc6b" y="199.794531"/>
     <use style="fill:#cc0000;stroke:#cc0000;" x="214.485528" xlink:href="#m3c2b1ddc6b" y="179.727945"/>
     <use style="fill:#cc0000;stroke:#cc0000;" x="216.972864" xlink:href="#m3c2b1ddc6b" y="162.010994"/>
     <use style="fill:#cc0000;stroke:#cc0000;" x="219.460201" xlink:href="#m3c2b1ddc6b" y="146.833063"/>
     <use style="fill:#cc0000;stroke:#cc0000;" x="221.947538" xlink:href="#m3c2b1ddc6b" y="130.067204"/>
     <use style="fill:#cc0000;stroke:#cc0000;" x="224.434874" xlink:href="#m3c2b1ddc6b" y="112.360658"/>
     <use style="fill:#cc0000;stroke:#cc0000;" x="226.922211" xlink:href="#m3c2b1ddc6b" y="98.31488"/>
     <use style="fill:#cc0000;stroke:#cc0000;" x="229.409548" xlink:href="#m3c2b1ddc6b" y="87.744647"/>
     <use style="fill:#cc0000;stroke:#cc0000;" x="231.896884" xlink:href="#m3c2b1ddc6b" y="76.373166"/>
     <use style="fill:#cc0000;stroke:#cc0000;" x="234.384221" xlink:href="#m3c2b1ddc6b" y="68.296167"/>
     <use style="fill:#cc0000;stroke:#cc0000;" x="236.871558" xlink:href="#m3c2b1ddc6b" y="64.539666"/>
     <use style="fill:#cc0000;stroke:#cc0000;" x="239.358894" xlink:href="#m3c2b1ddc6b" y="60.065162"/>
     <use style="fill:#cc0000;stroke:#cc0000;" x="241.846231" xlink:href="#m3c2b1ddc6b" y="58.585455"/>
     <use style="fill:#cc0000;stroke:#cc0000;" x="244.333568" xlink:href="#m3c2b1ddc6b" y="59.02458"/>
     <use style="fill:#cc0000;stroke:#cc0000;" x="246.820905" xlink:href="#m3c2b1ddc6b" y="63.501165"/>
     <use style="fill:#cc0000;stroke:#cc0000;" x="249.308241" xlink:href="#m3c2b1ddc6b" y="69.915313"/>
     <use style="fill:#cc0000;stroke:#cc0000;" x="251.795578" xlink:href="#m3c2b1ddc6b" y="79.646837"/>
     <use style="fill:#cc0000;stroke:#cc0000;" x="254.282915" xlink:href="#m3c2b1ddc6b" y="89.549016"/>
     <use style="fill:#cc0000;stroke:#cc0000;" x="256.770251" xlink:href="#m3c2b1ddc6b" y="102.283661"/>
     <use style="fill:#cc0000;stroke:#cc0000;" x="259.257588" xlink:href="#m3c2b1ddc6b" y="116.941301"/>
     <use style="fill:#cc0000;stroke:#cc0000;" x="261.744925" xlink:href="#m3c2b1ddc6b" y="132.612467"/>
     <use style="fill:#cc0000;stroke:#cc0000;" x="264.232261" xlink:href="#m3c2b1ddc6b" y="148.262823"/>
     <use style="fill:#cc0000;stroke:#cc0000;" x="266.719598" xlink:href="#m3c2b1ddc6b" y="164.676965"/>
     <use style="fill:#cc0000;stroke:#cc0000;" x="269.206935" xlink:href="#m3c2b1ddc6b" y="180.085905"/>
     <use style="fill:#cc0000;stroke:#cc0000;" x="271.694271" xlink:href="#m3c2b1ddc6b" y="198.156655"/>
     <use style="fill:#cc0000;stroke:#cc0000;" x="274.181608" xlink:href="#m3c2b1ddc6b" y="213.430319"/>
     <use style="fill:#cc0000;stroke:#cc0000;" x="276.668945" xlink:href="#m3c2b1ddc6b" y="229.476096"/>
     <use style="fill:#cc0000;stroke:#cc0000;" x="279.156281" xlink:href="#m3c2b1ddc6b" y="246.629052"/>
     <use style="fill:#cc0000;stroke:#cc0000;" x="281.643618" xlink:href="#m3c2b1ddc6b" y="260.939137"/>
     <use style="fill:#cc0000;stroke:#cc0000;" x="284.130955" xlink:href="#m3c2b1ddc6b" y="273.788245"/>
     <use style="fill:#cc0000;stroke:#cc0000;" x="286.618291" xlink:href="#m3c2b1ddc6b" y="287.938081"/>
     <use style="fill:#cc0000;stroke:#cc0000;" x="289.105628" xlink:href="#m3c2b1ddc6b" y="299.600926"/>
     <use style="fill:#cc0000;stroke:#cc0000;" x="291.592965" xlink:href="#m3c2b1ddc6b" y="309.888121"/>
     <use style="fill:#cc0000;stroke:#cc0000;" x="294.080302" xlink:href="#m3c2b1ddc6b" y="319.87979"/>
     <use style="fill:#cc0000;stroke:#cc0000;" x="296.567638" xlink:href="#m3c2b1ddc6b" y="328.793417"/>
     <use style="fill:#cc0000;stroke:#cc0000;" x="299.054975" xlink:href="#m3c2b1ddc6b" y="337.777803"/>
     <use style="fill:#cc0000;stroke:#cc0000;" x="301.542312" xlink:href="#m3c2b1ddc6b" y="345.186748"/>
     <use style="fill:#cc0000;stroke:#cc0000;" x="304.029648" xlink:href="#m3c2b1ddc6b" y="351.896421"/>
     <use style="fill:#cc0000;stroke:#cc0000;" x="306.516985" xlink:href="#m3c2b1ddc6b" y="357.707032"/>
     <use style="fill:#cc0000;stroke:#cc0000;" x="309.004322" xlink:href="#m3c2b1ddc6b" y="362.587362"/>
     <use style="fill:#cc0000;stroke:#cc0000;" x="311.491658" xlink:href="#m3c2b1ddc6b" y="367.128463"/>
     <use style="fill:#cc0000;stroke:#cc0000;" x="313.978995" xlink:href="#m3c2b1ddc6b" y="370.583195"/>
     <use style="fill:#cc0000;stroke:#cc0000;" x="316.466332" xlink:href="#m3c2b1ddc6b" y="373.61337"/>
     <use style="fill:#cc0000;stroke:#cc0000;" x="318.953668" xlink:href="#m3c2b1ddc6b" y="376.522838"/>
     <use style="fill:#cc0000;stroke:#cc0000;" x="321.441005" xlink:href="#m3c2b1ddc6b" y="378.730953"/>
     <use style="fill:#cc0000;stroke:#cc0000;" x="323.928342" xlink:href="#m3c2b1ddc6b" y="380.312638"/>
     <use style="fill:#cc0000;stroke:#cc0000;" x="326.415678" xlink:href="#m3c2b1ddc6b" y="382.131576"/>
     <use style="fill:#cc0000;stroke:#cc0000;" x="328.903015" xlink:href="#m3c2b1ddc6b" y="383.297028"/>
     <use style="fill:#cc0000;stroke:#cc0000;" x="331.390352" xlink:href="#m3c2b1ddc6b" y="384.341772"/>
     <use style="fill:#cc0000;stroke:#cc0000;" x="333.877688" xlink:href="#m3c2b1ddc6b" y="385.066017"/>
     <use style="fill:#cc0000;stroke:#cc0000;" x="336.365025" xlink:href="#m3c2b1ddc6b" y="385.973405"/>
     <use style="fill:#cc0000;stroke:#cc0000;" x="338.852362" xlink:href="#m3c2b1ddc6b" y="386.551969"/>
     <use style="fill:#cc0000;stroke:#cc0000;" x="341.339698" xlink:href="#m3c2b1ddc6b" y="387.086828"/>
     <use style="fill:#cc0000;stroke:#cc0000;" x="343.827035" xlink:href="#m3c2b1ddc6b" y="387.523872"/>
     <use style="fill:#cc0000;stroke:#cc0000;" x="346.314372" xlink:href="#m3c2b1ddc6b" y="387.607119"/>
     <use style="fill:#cc0000;stroke:#cc0000;" x="348.801709" xlink:href="#m3c2b1ddc6b" y="387.800667"/>
     <use style="fill:#cc0000;stroke:#cc0000;" x="351.289045" xlink:href="#m3c2b1ddc6b" y="387.848534"/>
     <use style="fill:#cc0000;stroke:#cc0000;" x="353.776382" xlink:href="#m3c2b1ddc6b" y="387.94843"/>
     <use style="fill:#cc0000;stroke:#cc0000;" x="356.263719" xlink:href="#m3c2b1ddc6b" y="387.871427"/>
     <use style="fill:#cc0000;stroke:#cc0000;" x="358.751055" xlink:href="#m3c2b1ddc6b" y="387.994216"/>
     <use style="fill:#cc0000;stroke:#cc0000;" x="361.238392" xlink:href="#m3c2b1ddc6b" y="387.942186"/>
     <use style="fill:#cc0000;stroke:#cc0000;" x="363.725729" xlink:href="#m3c2b1ddc6b" y="387.940105"/>
     <use style="fill:#cc0000;stroke:#cc0000;" x="366.213065" xlink:href="#m3c2b1ddc6b" y="387.790261"/>
     <use style="fill:#cc0000;stroke:#cc0000;" x="368.700402" xlink:href="#m3c2b1ddc6b" y="387.854778"/>
     <use style="fill:#cc0000;stroke:#cc0000;" x="371.187739" xlink:href="#m3c2b1ddc6b" y="387.773612"/>
     <use style="fill:#cc0000;stroke:#cc0000;" x="373.675075" xlink:href="#m3c2b1ddc6b" y="387.784018"/>
     <use style="fill:#cc0000;stroke:#cc0000;" x="376.162412" xlink:href="#m3c2b1ddc6b" y="387.598794"/>
     <use style="fill:#cc0000;stroke:#cc0000;" x="378.649749" xlink:href="#m3c2b1ddc6b" y="387.265808"/>
     <use style="fill:#cc0000;stroke:#cc0000;" x="381.137085" xlink:href="#m3c2b1ddc6b" y="387.39484"/>
     <use style="fill:#cc0000;stroke:#cc0000;" x="383.624422" xlink:href="#m3c2b1ddc6b" y="387.190886"/>
     <use style="fill:#cc0000;stroke:#cc0000;" x="386.111759" xlink:href="#m3c2b1ddc6b" y="386.799627"/>
     <use style="fill:#cc0000;stroke:#cc0000;" x="388.599095" xlink:href="#m3c2b1ddc6b" y="387.088909"/>
     <use style="fill:#cc0000;stroke:#cc0000;" x="391.086432" xlink:href="#m3c2b1ddc6b" y="386.980689"/>
     <use style="fill:#cc0000;stroke:#cc0000;" x="393.573769" xlink:href="#m3c2b1ddc6b" y="386.949471"/>
     <use style="fill:#cc0000;stroke:#cc0000;" x="396.061106" xlink:href="#m3c2b1ddc6b" y="386.699731"/>
     <use style="fill:#cc0000;stroke:#cc0000;" x="398.548442" xlink:href="#m3c2b1ddc6b" y="386.789221"/>
     <use style="fill:#cc0000;stroke:#cc0000;" x="401.035779" xlink:href="#m3c2b1ddc6b" y="386.741355"/>
     <use style="fill:#cc0000;stroke:#cc0000;" x="403.523116" xlink:href="#m3c2b1ddc6b" y="386.551969"/>
     <use style="fill:#cc0000;stroke:#cc0000;" x="406.010452" xlink:href="#m3c2b1ddc6b" y="386.830845"/>
     <use style="fill:#cc0000;stroke:#cc0000;" x="408.497789" xlink:href="#m3c2b1ddc6b" y="386.828764"/>
     <use style="fill:#cc0000;stroke:#cc0000;" x="410.985126" xlink:href="#m3c2b1ddc6b" y="386.753842"/>
     <use style="fill:#cc0000;stroke:#cc0000;" x="413.472462" xlink:href="#m3c2b1ddc6b" y="386.583186"/>
     <use style="fill:#cc0000;stroke:#cc0000;" x="415.959799" xlink:href="#m3c2b1ddc6b" y="386.772572"/>
     <use style="fill:#cc0000;stroke:#cc0000;" x="418.447136" xlink:href="#m3c2b1ddc6b" y="386.691407"/>
     <use style="fill:#cc0000;stroke:#cc0000;" x="420.934472" xlink:href="#m3c2b1ddc6b" y="386.818358"/>
     <use style="fill:#cc0000;stroke:#cc0000;" x="423.421809" xlink:href="#m3c2b1ddc6b" y="386.920335"/>
     <use style="fill:#cc0000;stroke:#cc0000;" x="425.909146" xlink:href="#m3c2b1ddc6b" y="387.132614"/>
     <use style="fill:#cc0000;stroke:#cc0000;" x="428.396482" xlink:href="#m3c2b1ddc6b" y="387.10764"/>
     <use style="fill:#cc0000;stroke:#cc0000;" x="430.883819" xlink:href="#m3c2b1ddc6b" y="387.070179"/>
     <use style="fill:#cc0000;stroke:#cc0000;" x="433.371156" xlink:href="#m3c2b1ddc6b" y="387.415652"/>
     <use style="fill:#cc0000;stroke:#cc0000;" x="435.858492" xlink:href="#m3c2b1ddc6b" y="387.413571"/>
     <use style="fill:#cc0000;stroke:#cc0000;" x="438.345829" xlink:href="#m3c2b1ddc6b" y="387.30535"/>
     <use style="fill:#cc0000;stroke:#cc0000;" x="440.833166" xlink:href="#m3c2b1ddc6b" y="387.374029"/>
     <use style="fill:#cc0000;stroke:#cc0000;" x="443.320503" xlink:href="#m3c2b1ddc6b" y="387.48433"/>
     <use style="fill:#cc0000;stroke:#cc0000;" x="445.807839" xlink:href="#m3c2b1ddc6b" y="387.704934"/>
     <use style="fill:#cc0000;stroke:#cc0000;" x="448.295176" xlink:href="#m3c2b1ddc6b" y="387.727827"/>
     <use style="fill:#cc0000;stroke:#cc0000;" x="450.782513" xlink:href="#m3c2b1ddc6b" y="387.869346"/>
     <use style="fill:#cc0000;stroke:#cc0000;" x="453.269849" xlink:href="#m3c2b1ddc6b" y="388.033758"/>
     <use style="fill:#cc0000;stroke:#cc0000;" x="455.757186" xlink:href="#m3c2b1ddc6b" y="388.015027"/>
     <use style="fill:#cc0000;stroke:#cc0000;" x="458.244523" xlink:href="#m3c2b1ddc6b" y="388.029595"/>
     <use style="fill:#cc0000;stroke:#cc0000;" x="460.731859" xlink:href="#m3c2b1ddc6b" y="388.121167"/>
     <use style="fill:#cc0000;stroke:#cc0000;" x="463.219196" xlink:href="#m3c2b1ddc6b" y="388.185683"/>
     <use style="fill:#cc0000;stroke:#cc0000;" x="465.706533" xlink:href="#m3c2b1ddc6b" y="388.210657"/>
     <use style="fill:#cc0000;stroke:#cc0000;" x="468.193869" xlink:href="#m3c2b1ddc6b" y="388.25228"/>
     <use style="fill:#cc0000;stroke:#cc0000;" x="470.681206" xlink:href="#m3c2b1ddc6b" y="388.364663"/>
     <use style="fill:#cc0000;stroke:#cc0000;" x="473.168543" xlink:href="#m3c2b1ddc6b" y="388.429179"/>
     <use style="fill:#cc0000;stroke:#cc0000;" x="475.655879" xlink:href="#m3c2b1ddc6b" y="388.50202"/>
     <use style="fill:#cc0000;stroke:#cc0000;" x="478.143216" xlink:href="#m3c2b1ddc6b" y="388.595672"/>
     <use style="fill:#cc0000;stroke:#cc0000;" x="480.630553" xlink:href="#m3c2b1ddc6b" y="388.660188"/>
     <use style="fill:#cc0000;stroke:#cc0000;" x="483.117889" xlink:href="#m3c2b1ddc6b" y="388.739272"/>
     <use style="fill:#cc0000;stroke:#cc0000;" x="485.605226" xlink:href="#m3c2b1ddc6b" y="388.77049"/>
     <use style="fill:#cc0000;stroke:#cc0000;" x="488.092563" xlink:href="#m3c2b1ddc6b" y="388.922415"/>
     <use style="fill:#cc0000;stroke:#cc0000;" x="490.579899" xlink:href="#m3c2b1ddc6b" y="389.028554"/>
     <use style="fill:#cc0000;stroke:#cc0000;" x="493.067236" xlink:href="#m3c2b1ddc6b" y="389.013986"/>
     <use style="fill:#cc0000;stroke:#cc0000;" x="495.554573" xlink:href="#m3c2b1ddc6b" y="389.001499"/>
     <use style="fill:#cc0000;stroke:#cc0000;" x="498.04191" xlink:href="#m3c2b1ddc6b" y="389.103476"/>
     <use style="fill:#cc0000;stroke:#cc0000;" x="500.529246" xlink:href="#m3c2b1ddc6b" y="389.007743"/>
     <use style="fill:#cc0000;stroke:#cc0000;" x="503.016583" xlink:href="#m3c2b1ddc6b" y="389.143018"/>
     <use style="fill:#cc0000;stroke:#cc0000;" x="505.50392" xlink:href="#m3c2b1ddc6b" y="389.120125"/>
     <use style="fill:#cc0000;stroke:#cc0000;" x="507.991256" xlink:href="#m3c2b1ddc6b" y="389.134694"/>
     <use style="fill:#cc0000;stroke:#cc0000;" x="510.478593" xlink:href="#m3c2b1ddc6b" y="389.07434"/>
     <use style="fill:#cc0000;stroke:#cc0000;" x="512.96593" xlink:href="#m3c2b1ddc6b" y="389.086827"/>
     <use style="fill:#cc0000;stroke:#cc0000;" x="515.453266" xlink:href="#m3c2b1ddc6b" y="389.211697"/>
     <use style="fill:#cc0000;stroke:#cc0000;" x="517.940603" xlink:href="#m3c2b1ddc6b" y="389.161749"/>
     <use style="fill:#cc0000;stroke:#cc0000;" x="520.42794" xlink:href="#m3c2b1ddc6b" y="389.240833"/>
     <use style="fill:#cc0000;stroke:#cc0000;" x="522.915276" xlink:href="#m3c2b1ddc6b" y="389.297024"/>
     <use style="fill:#cc0000;stroke:#cc0000;" x="525.402613" xlink:href="#m3c2b1ddc6b" y="389.328242"/>
     <use style="fill:#cc0000;stroke:#cc0000;" x="527.88995" xlink:href="#m3c2b1ddc6b" y="389.371946"/>
     <use style="fill:#cc0000;stroke:#cc0000;" x="530.377286" xlink:href="#m3c2b1ddc6b" y="389.297024"/>
     <use style="fill:#cc0000;stroke:#cc0000;" x="532.864623" xlink:href="#m3c2b1ddc6b" y="389.321998"/>
     <use style="fill:#cc0000;stroke:#cc0000;" x="535.35196" xlink:href="#m3c2b1ddc6b" y="389.305349"/>
     <use style="fill:#cc0000;stroke:#cc0000;" x="537.839296" xlink:href="#m3c2b1ddc6b" y="389.336566"/>
     <use style="fill:#cc0000;stroke:#cc0000;" x="540.326633" xlink:href="#m3c2b1ddc6b" y="389.238752"/>
     <use style="fill:#cc0000;stroke:#cc0000;" x="542.81397" xlink:href="#m3c2b1ddc6b" y="389.2887"/>
     <use style="fill:#cc0000;stroke:#cc0000;" x="545.301307" xlink:href="#m3c2b1ddc6b" y="389.2887"/>
     <use style="fill:#cc0000;stroke:#cc0000;" x="547.788643" xlink:href="#m3c2b1ddc6b" y="389.267888"/>
     <use style="fill:#cc0000;stroke:#cc0000;" x="550.27598" xlink:href="#m3c2b1ddc6b" y="389.247076"/>
     <use style="fill:#cc0000;stroke:#cc0000;" x="552.763317" xlink:href="#m3c2b1ddc6b" y="389.224184"/>
     <use style="fill:#cc0000;stroke:#cc0000;" x="555.250653" xlink:href="#m3c2b1ddc6b" y="389.21794"/>
     <use style="fill:#cc0000;stroke:#cc0000;" x="557.73799" xlink:href="#m3c2b1ddc6b" y="389.324079"/>
     <use style="fill:#cc0000;stroke:#cc0000;" x="560.225327" xlink:href="#m3c2b1ddc6b" y="389.238752"/>
     <use style="fill:#cc0000;stroke:#cc0000;" x="562.712663" xlink:href="#m3c2b1ddc6b" y="389.195047"/>
     <use style="fill:#cc0000;stroke:#cc0000;" x="565.2" xlink:href="#m3c2b1ddc6b" y="389.309511"/>
     <use style="fill:#cc0000;stroke:#cc0000;" x="567.687337" xlink:href="#m3c2b1ddc6b" y="389.363622"/>
    </g>
   </g>
   <g id="patch_3">
    <path d="M 70.22 390.04 
L 70.22 25.44 
" style="fill:none;stroke:#000000;stroke-linecap:square;stroke-linejoin:miter;stroke-width:0.8;"/>
   </g>
   <g id="patch_4">
    <path d="M 565.2 390.04 
L 565.2 25.44 
" style="fill:none;stroke:#000000;stroke-linecap:square;stroke-linejoin:miter;stroke-width:0.8;"/>
   </g>
   <g id="patch_5">
    <path d="M 70.22 390.04 
L 565.2 390.04 
" style="fill:none;stroke:#000000;stroke-linecap:square;stroke-linejoin:miter;stroke-width:0.8;"/>
   </g>
   <g id="patch_6">
    <path d="M 70.22 25.44 
L 565.2 25.44 
" style="fill:none;stroke:#000000;stroke-linecap:square;stroke-linejoin:miter;stroke-width:0.8;"/>
   </g>
   <g id="text_20">
    <!-- 27-mer spectra for: Illumina_reads1.fq Illumina_reads2.fq -->
    <defs>
     <path d="M 18.109375 8.203125 
L 18.109375 -20.796875 
L 9.078125 -20.796875 
L 9.078125 54.6875 
L 18.109375 54.6875 
L 18.109375 46.390625 
Q 20.953125 51.265625 25.265625 53.625 
Q 29.59375 56 35.59375 56 
Q 45.5625 56 51.78125 48.09375 
Q 58.015625 40.1875 58.015625 27.296875 
Q 58.015625 14.40625 51.78125 6.484375 
Q 45.5625 -1.421875 35.59375 -1.421875 
Q 29.59375 -1.421875 25.265625 0.953125 
Q 20.953125 3.328125 18.109375 8.203125 
z
M 48.6875 27.296875 
Q 48.6875 37.203125 44.609375 42.84375 
Q 40.53125 48.484375 33.40625 48.484375 
Q 26.265625 48.484375 22.1875 42.84375 
Q 18.109375 37.203125 18.109375 27.296875 
Q 18.109375 17.390625 22.1875 11.75 
Q 26.265625 6.109375 33.40625 6.109375 
Q 40.53125 6.109375 44.609375 11.75 
Q 48.6875 17.390625 48.6875 27.296875 
z
" id="DejaVuSans-112"/>
     <path d="M 34.28125 27.484375 
Q 23.390625 27.484375 19.1875 25 
Q 14.984375 22.515625 14.984375 16.5 
Q 14.984375 11.71875 18.140625 8.90625 
Q 21.296875 6.109375 26.703125 6.109375 
Q 34.1875 6.109375 38.703125 11.40625 
Q 43.21875 16.703125 43.21875 25.484375 
L 43.21875 27.484375 
z
M 52.203125 31.203125 
L 52.203125 0 
L 43.21875 0 
L 43.21875 8.296875 
Q 40.140625 3.328125 35.546875 0.953125 
Q 30.953125 -1.421875 24.3125 -1.421875 
Q 15.921875 -1.421875 10.953125 3.296875 
Q 6 8.015625 6 15.921875 
Q 6 25.140625 12.171875 29.828125 
Q 18.359375 34.515625 30.609375 34.515625 
L 43.21875 34.515625 
L 43.21875 35.40625 
Q 43.21875 41.609375 39.140625 45 
Q 35.0625 48.390625 27.6875 48.390625 
Q 23 48.390625 18.546875 47.265625 
Q 14.109375 46.140625 10.015625 43.890625 
L 10.015625 52.203125 
Q 14.9375 54.109375 19.578125 55.046875 
Q 24.21875 56 28.609375 56 
Q 40.484375 56 46.34375 49.84375 
Q 52.203125 43.703125 52.203125 31.203125 
z
" id="DejaVuSans-97"/>
     <path d="M 30.609375 48.390625 
Q 23.390625 48.390625 19.1875 42.75 
Q 14.984375 37.109375 14.984375 27.296875 
Q 14.984375 17.484375 19.15625 11.84375 
Q 23.34375 6.203125 30.609375 6.203125 
Q 37.796875 6.203125 41.984375 11.859375 
Q 46.1875 17.53125 46.1875 27.296875 
Q 46.1875 37.015625 41.984375 42.703125 
Q 37.796875 48.390625 30.609375 48.390625 
z
M 30.609375 56 
Q 42.328125 56 49.015625 48.375 
Q 55.71875 40.765625 55.71875 27.296875 
Q 55.71875 13.875 49.015625 6.21875 
Q 42.328125 -1.421875 30.609375 -1.421875 
Q 18.84375 -1.421875 12.171875 6.21875 
Q 5.515625 13.875 5.515625 27.296875 
Q 5.515625 40.765625 12.171875 48.375 
Q 18.84375 56 30.609375 56 
z
" id="DejaVuSans-111"/>
     <path d="M 11.71875 12.40625 
L 22.015625 12.40625 
L 22.015625 0 
L 11.71875 0 
z
M 11.71875 51.703125 
L 22.015625 51.703125 
L 22.015625 39.3125 
L 11.71875 39.3125 
z
" id="DejaVuSans-58"/>
     <path d="M 9.8125 72.90625 
L 19.671875 72.90625 
L 19.671875 0 
L 9.8125 0 
z
" id="DejaVuSans-73"/>
     <path d="M 9.421875 75.984375 
L 18.40625 75.984375 
L 18.40625 0 
L 9.421875 0 
z
" id="DejaVuSans-108"/>
     <path d="M 50.984375 -16.609375 
L 50.984375 -23.578125 
L -0.984375 -23.578125 
L -0.984375 -16.609375 
z
" id="DejaVuSans-95"/>
     <path d="M 10.6875 12.40625 
L 21 12.40625 
L 21 0 
L 10.6875 0 
z
" id="DejaVuSans-46"/>
    </defs>
    <g transform="translate(145.3375 19.44)scale(0.12 -0.12)">
     <use xlink:href="#DejaVuSans-50"/>
     <use x="63.623047" xlink:href="#DejaVuSans-55"/>
     <use x="127.246094" xlink:href="#DejaVuSans-45"/>
     <use x="163.330078" xlink:href="#DejaVuSans-109"/>
     <use x="260.742188" xlink:href="#DejaVuSans-101"/>
     <use x="322.265625" xlink:href="#DejaVuSans-114"/>
     <use x="363.378906" xlink:href="#DejaVuSans-32"/>
     <use x="395.166016" xlink:href="#DejaVuSans-115"/>
     <use x="447.265625" xlink:href="#DejaVuSans-112"/>
     <use x="510.742188" xlink:href="#DejaVuSans-101"/>
     <use x="572.265625" xlink:href="#DejaVuSans-99"/>
     <use x="627.246094" xlink:href="#DejaVuSans-116"/>
     <use x="666.455078" xlink:href="#DejaVuSans-114"/>
     <use x="707.568359" xlink:href="#DejaVuSans-97"/>
     <use x="768.847656" xlink:href="#DejaVuSans-32"/>
     <use x="800.634766" xlink:href="#DejaVuSans-102"/>
     <use x="835.839844" xlink:href="#DejaVuSans-111"/>
     <use x="897.021484" xlink:href="#DejaVuSans-114"/>
     <use x="936.384766" xlink:href="#DejaVuSans-58"/>
     <use x="970.076172" xlink:href="#DejaVuSans-32"/>
     <use x="1001.863281" xlink:href="#DejaVuSans-73"/>
     <use x="1031.355469" xlink:href="#DejaVuSans-108"/>
     <use x="1059.138672" xlink:href="#DejaVuSans-108"/>
     <use x="1086.921875" xlink:href="#DejaVuSans-117"/>
     <use x="1150.300781" xlink:href="#DejaVuSans-109"/>
     <use x="1247.712891" xlink:href="#DejaVuSans-105"/>
     <use x="1275.496094" xlink:href="#DejaVuSans-110"/>
     <use x="1338.875" xlink:href="#DejaVuSans-97"/>
     <use x="1400.154297" xlink:href="#DejaVuSans-95"/>
     <use x="1450.154297" xlink:href="#DejaVuSans-114"/>
     <use x="1489.017578" xlink:href="#DejaVuSans-101"/>
     <use x="1550.541016" xlink:href="#DejaVuSans-97"/>
     <use x="1611.820312" xlink:href="#DejaVuSans-100"/>
     <use x="1675.296875" xlink:href="#DejaVuSans-115"/>
     <use x="1727.396484" xlink:href="#DejaVuSans-49"/>
     <use x="1791.019531" xlink:href="#DejaVuSans-46"/>
     <use x="1822.806641" xlink:href="#DejaVuSans-102"/>
     <use x="1858.011719" xlink:href="#DejaVuSans-113"/>
     <use x="1921.488281" xlink:href="#DejaVuSans-32"/>
     <use x="1953.275391" xlink:href="#DejaVuSans-73"/>
     <use x="1982.767578" xlink:href="#DejaVuSans-108"/>
     <use x="2010.550781" xlink:href="#DejaVuSans-108"/>
     <use x="2038.333984" xlink:href="#DejaVuSans-117"/>
     <use x="2101.712891" xlink:href="#DejaVuSans-109"/>
     <use x="2199.125" xlink:href="#DejaVuSans-105"/>
     <use x="2226.908203" xlink:href="#DejaVuSans-110"/>
     <use x="2290.287109" xlink:href="#DejaVuSans-97"/>
     <use x="2351.566406" xlink:href="#DejaVuSans-95"/>
     <use x="2401.566406" xlink:href="#DejaVuSans-114"/>
     <use x="2440.429688" xlink:href="#DejaVuSans-101"/>
     <use x="2501.953125" xlink:href="#DejaVuSans-97"/>
     <use x="2563.232422" xlink:href="#DejaVuSans-100"/>
     <use x="2626.708984" xlink:href="#DejaVuSans-115"/>
     <use x="2678.808594" xlink:href="#DejaVuSans-50"/>
     <use x="2742.431641" xlink:href="#DejaVuSans-46"/>
     <use x="2774.21875" xlink:href="#DejaVuSans-102"/>
     <use x="2809.423828" xlink:href="#DejaVuSans-113"/>
    </g>
   </g>
  </g>
 </g>
 <defs>
  <clipPath id="p95b527d678">
   <rect height="364.6" width="494.98" x="70.22" y="25.44"/>
  </clipPath>
 </defs>
</svg>
